<svg xmlns="http://www.w3.org/2000/svg" viewBox="0 0 800 800" height="800" width="800"><g transform="matrix(4,0,0,4,0,0)"><defs><style>.a{fill:#56544b}.b{fill:#2c2c2c}.c{fill:#cbdaeb}.d{fill:#ffffff}.f{fill:#f0d8c9}.h{fill:#b3b3b3}.i{fill:#e8f7ed}</style></defs><path class="a" d="M40.022 84.553c.249.8.249.8-.492 1.438-.484-1.609-1.132-3.147-.583-4.871.235.741.463 1.482.7 2.222.126.406.253.812.375 1.211z"></path><path class="b" d="M196.383 105.732c.292 6.951-1.047 13.681-2.834 20.347-1.4 5.191-3.091 10.3-4.416 15.51a56.134 56.134 0 0 0-1.431 8.888 31.2 31.2 0 0 1-1.809 7.627c-1.011 2.842-2.115 5.662-2.991 8.546-1.154 3.782-2.9 7.321-4.23 11.032a104.817 104.817 0 0 1-8.126 16.9 15.335 15.335 0 0 1-2.3 3.112 3.66 3.66 0 0 1-2.742 1.126 81.752 81.752 0 0 1-11.565-1c-4.309-.626-8.618-1.225-12.9-1.986a.564.564 0 0 0-.392.028c-1.773.911-3.752 1.125-5.64 1.659a55.251 55.251 0 0 1-7.413 1.168c-2.4.328-4.807.67-7.221.855-1.774.142-3.533.363-5.306.4-4.1.1-8.2.078-12.306-.157-4.487-.256-8.952-.676-13.417-1.125a81.364 81.364 0 0 1-11.093-1.962 11.9 11.9 0 0 1-5.655-3.539c-1.617-1.659-3.162-3.376-4.707-5.106a.8.8 0 0 0-.884-.328 1.858 1.858 0 0 1-1.687-.562 16.421 16.421 0 0 1-1.8-1.8 43.084 43.084 0 0 0-6.11-5.555 14.5 14.5 0 0 0-3.184-1.752 3.669 3.669 0 0 1-2.471-3.311c-.093-1.247-.406-2.464-.506-3.718a26.337 26.337 0 0 1 .164-4.672c.221-2.435.506-4.864.769-7.292.015-.135-.007-.328.072-.385.569-.413.128-.683-.122-.961a125.096 125.096 0 0 0-1.865-1.987 6 6 0 0 0-2.044-1.381 2.9 2.9 0 0 1-1.645-1.467 4.126 4.126 0 0 0-2.771-2.23c-.562-.185-1.146-.32-1.73-.463a3.052 3.052 0 0 1-2.315-2.122c-.106-.32-.384-.335-.569-.5a22.936 22.936 0 0 0-2.806-1.831 4.282 4.282 0 0 1-1.823-3.781 6.655 6.655 0 0 0-.193-1.011 58.8 58.8 0 0 1-.7-6.894c-.029-.427-.022-.848-.065-1.268a7.705 7.705 0 0 1 .705-4.337.9.9 0 0 0 .132-.333.923.923 0 0 0-.01-.359.9.9 0 0 0-.414-.568c-1.7-1.489-3.518-2.82-5.17-4.366-.8-.755-1.638-1.467-2.414-2.243A1.487 1.487 0 0 1 26.69 118a7.623 7.623 0 0 1 3.191-1.126c1.937-.32 3.881-.6 5.825-.9a5.868 5.868 0 0 1 2.884.2 5.42 5.42 0 0 1 2.03 1.289c1.916 1.844 3.732 3.8 5.655 5.633a2.429 2.429 0 0 0 1.915.968.328.328 0 0 1 .143.007 1.771 1.771 0 0 1 1.175.834 4.565 4.565 0 0 1 .947 2.207c.093.8.84 1.054 1.246 1.588.114.143.321-.078.449-.163a2.58 2.58 0 0 1 2.592-.164 2.766 2.766 0 0 1 1.681 2.471 3.277 3.277 0 0 1-.142.933 9.459 9.459 0 0 1-.606 1.154c-.107.249-.064.327.064.47.328.349.67.691 1 1.047a.7.7 0 0 0 .251.18.724.724 0 0 0 .3.055 1.643 1.643 0 0 1 1.737 1.638 2.614 2.614 0 0 0 .777 1.595c1.552 1.709 3.19 3.347 4.785 5.02.549.57 1.225 1 1.745 1.6.847.976.62 1.759-.634 2.129a36.27 36.27 0 0 1-3.931.648 1.067 1.067 0 0 0-.555.164q.757.9 1.5 1.795a.216.216 0 0 0 .25.085 11.7 11.7 0 0 1 2.058-.107 3.176 3.176 0 0 1 2.87 1.425c1.111 1.51 2.051 3.126 3.041 4.707.662 1.068 1.346 2.115 2.015 3.169a3.31 3.31 0 0 0 1.7 1.325 21.138 21.138 0 0 1 2.884 1.289c1.054.577 2.08 1.424 3.447 1.3.435-.043.563-.1.463-.556a25.364 25.364 0 0 1-.406-3.667 1.359 1.359 0 0 0-.37-.876 90.388 90.388 0 0 1-5.69-7.578 10.905 10.905 0 0 1-.883-1.673 1.484 1.484 0 0 0-.556-.641A10.763 10.763 0 0 1 71.9 146.1a2.16 2.16 0 0 1-.6-.837 2.184 2.184 0 0 1-.151-1.021c.043-.349-.242-.449-.392-.655-.405-.563-.776-1.125-1.659-.9a2.285 2.285 0 0 1-1.3-.227c-1.652-.606-3.226-2.094-2.4-4.608a4.817 4.817 0 0 1 .434-1.125c.948-1.482 1.574-3.177 2.9-4.416a.581.581 0 0 0 .249-.42 22.445 22.445 0 0 0-3.447.762 16.227 16.227 0 0 1-4.422 1.282 5.046 5.046 0 0 1-2.272-.321 3.035 3.035 0 0 1-1.965-2.791 3.474 3.474 0 0 1 .071-.712 1.7 1.7 0 0 1 1.2-1.232 34.764 34.764 0 0 1 6.467-2.122c2.357-.414 4.636-1.14 6.95-1.724a9.468 9.468 0 0 1 2.863-.313 4.25 4.25 0 0 1 3.4 1.809 9.475 9.475 0 0 1 .855 1.5 4.342 4.342 0 0 0 2.065 2.244 5.935 5.935 0 0 1 1.987 2.065 2.3 2.3 0 0 0 .527.662c.057-.755.107-1.474.171-2.193.078-.819.164-1.645.256-2.464a6.187 6.187 0 0 1 1.553-3.49 6.2 6.2 0 0 0 1.445-3.1c.235-1.267.492-2.528.7-3.8a17.553 17.553 0 0 1 1.517-4.109 79.179 79.179 0 0 1 4.188-8.368 21.429 21.429 0 0 0 2.734-9.044 15.531 15.531 0 0 1 1.218-5.612 17.01 17.01 0 0 1 7.079-7.1 6.308 6.308 0 0 1 2.792-.862 24.378 24.378 0 0 1 6.559.385 25.51 25.51 0 0 0 6.922.861 22.238 22.238 0 0 0 4.109-.562 1.154 1.154 0 0 0 .954-.919 8.942 8.942 0 0 1 2.158-3.376c.492-.548 1.019-1.054 1.524-1.588a.929.929 0 0 1 1-.356c-.057-.534-.249-.441-.52-.235a18.042 18.042 0 0 1-3.553 2.35 5.48 5.48 0 0 1-3.91.1 1.084 1.084 0 0 0-.869.05 3.2 3.2 0 0 1-2.92.363c-.285-.135-.377.121-.506.264a5.492 5.492 0 0 1-1.844 1.459 3.166 3.166 0 0 1-2.315.1 13.686 13.686 0 0 1-4.073-2.136c-.185-.143-.349-.406-.6-.072-1.439 1.831-4.045 1.824-6.153.8a4.1 4.1 0 0 1-1.5-1.139 1.149 1.149 0 0 1-.285-1.183c.2-.455.641-.5 1.075-.512.307-.015.613-.057.919-.086 1.7-.149 2.521-1.189 2.279-3.069a13.325 13.325 0 0 0-3.269-7.15c-1.089-1.254-2.257-2.429-3.4-3.639a20.472 20.472 0 0 1-5.64-13.04 32.457 32.457 0 0 1 4.28-17.79 6.992 6.992 0 0 0 .662-1.709 13.237 13.237 0 0 1 3.7-6.046 63.092 63.092 0 0 1 6.879-5.648 36.114 36.114 0 0 1 8.681-5.006 26.434 26.434 0 0 1 8.589-1.616 30.463 30.463 0 0 1 12.505 2.093C147.736 18.472 154.117 25.2 158 34.4a27.65 27.65 0 0 1 1.588 7.556A32.279 32.279 0 0 0 161 49.671a10.879 10.879 0 0 0 .955 1.973 3.441 3.441 0 0 0 2.15 1.617 2.68 2.68 0 1 1-1.7 5.07 11.266 11.266 0 0 1-2.35-1.481c0 .278-.007.5 0 .719a5.148 5.148 0 0 1-1.994 4.116 1.832 1.832 0 0 1-1.773.4c-.741-.185-1.531-.178-2.265-.427-.271-.093-.335.1-.42.27a9.363 9.363 0 0 1-3.127 3.746 1 1 0 0 0 .193.15 4.786 4.786 0 0 1 2.613 3.468c.25.919.513 1.823.77 2.728a4.683 4.683 0 0 0 1.531 2.322 15.3 15.3 0 0 0 8.3 3.888 15.277 15.277 0 0 1 6.652 2.564 68.427 68.427 0 0 0 6.865 3.575 67.832 67.832 0 0 1 10.448 6.153 21.551 21.551 0 0 1 6.936 8.147 18.436 18.436 0 0 1 1.599 7.063zm-1 5.107a33.8 33.8 0 0 0-.235-7.72c-.726-4.508-3.219-7.948-6.595-10.818a51.59 51.59 0 0 0-9.407-5.968c-2.906-1.545-5.954-2.827-8.781-4.522-.506-.3-.6-.157-.762.3-1.617 4.48-3.062 9.009-4.544 13.531-3.012 9.2-5.839 18.445-7.264 28.052a54.17 54.17 0 0 0-.869 7.8c-.007 3.995.414 7.969.349 12.043a.576.576 0 0 0 .159-.178.555.555 0 0 0 .069-.228c.748-2.735 1.282-5.512 1.831-8.29a30.931 30.931 0 0 1 .79-3.61c.1-.321.271-.584.662-.47s.342.427.257.712c-.641 2.293-.933 4.65-1.453 6.958a61.972 61.972 0 0 1-3.361 11.579 9.853 9.853 0 0 0-.827 3.931 24.838 24.838 0 0 1-1.025 7.649 2.825 2.825 0 0 0-.206 1.41c.071.392.042.691-.4.719a.51.51 0 0 1-.285-.05.643.643 0 0 1-.23-.25.632.632 0 0 1-.069-.333 5.37 5.37 0 0 1 .292-1.881 25.149 25.149 0 0 0 .982-7.7 8.833 8.833 0 0 1 .335-2.279 35.978 35.978 0 0 1 1.332-3.511 3.026 3.026 0 0 0 .356-1.268c-.043-1-.1-2-.135-3-.072-2.2-.107-4.394-.214-6.587a48.812 48.812 0 0 1 .1-9.237 146.022 146.022 0 0 1 3.162-16.508c1.524-5.9 3.439-11.672 5.3-17.469 1.346-4.18 2.7-8.354 4.28-12.456.086-.228-.043-.27-.164-.342a9.571 9.571 0 0 0-3.674-1.452 14.368 14.368 0 0 1-2.906-.484c-.413-.143-.563-.036-.7.356q-1.314 3.917-2.663 7.819c-1.182 3.426-2.244 6.887-3.661 10.227a27.969 27.969 0 0 1-3.532 6.281 13.124 13.124 0 0 1-3.853 3.447 10.706 10.706 0 0 1-5.925 1.189 1.516 1.516 0 0 0-1.467.641c-.655.854-1.4 1.645-2.108 2.45a14.2 14.2 0 0 1-4.4 3.518 7.831 7.831 0 0 1-3.326.79c.207.449.413.819.556 1.211a1.495 1.495 0 0 0 1.046.983c.606.185 1.2.413 1.788.648.776.313.854.869.185 1.381a13.072 13.072 0 0 1-1.531 1.033.937.937 0 0 0-.573.885.941.941 0 0 0 .082.361 6.064 6.064 0 0 1 .313 1.816c.021 1.118-.655 1.546-1.659 1.069a2.463 2.463 0 0 1-.784-.585c-.306-.348-.612-.7-.883-1.068a.784.784 0 0 0-1.047-.3c-.733.3-1.474.577-2.215.855-.327.121-.662.235-.975-.036a1 1 0 0 1-.235-1.075 5.407 5.407 0 0 1 .683-1.588 1 1 0 0 0-.028-1.126 16.574 16.574 0 0 1-.826-1.523c-.377-.8-.007-1.3.876-1.176a10.036 10.036 0 0 1 1.581.335.656.656 0 0 0 .847-.356 10.534 10.534 0 0 1 1.539-2.072 7.789 7.789 0 0 1-4.074-6.018 29.454 29.454 0 0 1-.249-5.192.856.856 0 0 0-.513-.9 7.936 7.936 0 0 1-4.23-5.491 16.881 16.881 0 0 1-.007-5.013c.263-2.457.8-4.864 1.31-7.279.064-.306.078-.47-.328-.42a17.32 17.32 0 0 1-5.683-.342c-.021-.007-.042-.007-.064-.014a28.535 28.535 0 0 0-8.076-.854 6.9 6.9 0 0 0-3.019.883 18.064 18.064 0 0 0-5.541 4.921 9.2 9.2 0 0 0-1.595 3.561 28.1 28.1 0 0 0-.5 3.368 20.726 20.726 0 0 1-2.543 8.866c-.5.826-.933 1.688-1.374 2.543-2.279 4.394-4.594 8.766-5.206 13.794a6.7 6.7 0 0 1-1.731 3.832 5.1 5.1 0 0 0-1.255 2.753 35.681 35.681 0 0 0-.392 3.9 4.861 4.861 0 0 1-.085 1.717.979.979 0 0 0 .128 1.018c1.082 2.044 2.307 4 3.418 6.032 2.215 4.024 4.793 7.819 7.229 11.7a1.646 1.646 0 0 0 .683.762c.392.171.784.342 1.175.527 1.9.868 3.761 1.844 5.612 2.806.171.092.349.17.648.306a5.065 5.065 0 0 0-1.68-2.671.936.936 0 0 1-.534-.833c.021-.3.142-.534.455-.584a.4.4 0 0 1 .189-.013.4.4 0 0 1 .175.074.412.412 0 0 1 .122.146.407.407 0 0 1 .041.185.5.5 0 0 0 .087.207.507.507 0 0 0 .17.149 3.833 3.833 0 0 1 1.011 1.1.657.657 0 0 0 .335.3 19.524 19.524 0 0 1 4.963 3.34c1.311 1.139 2.557 2.357 3.789 3.568a11.553 11.553 0 0 0 4.188 2.806 26.2 26.2 0 0 0 4.97 1.2.556.556 0 0 0 .022-.157c-.477-2.158-1.432-3.81-3.917-4.144a9.491 9.491 0 0 1-6.716-4.459 28.535 28.535 0 0 0-4.636-5.3 3.011 3.011 0 0 0-3.639-.6c-1.638.776-3.269 1.545-4.893 2.364a.716.716 0 0 1-.7.085.529.529 0 0 1-.178-.234c-.185-.4.114-.577.442-.734 1.025-.484 2.037-1 3.069-1.481.435-.207.841-.364.506-.976a1.309 1.309 0 0 1-.043-.691c.128-1.438.228-2.877.406-4.308a42.935 42.935 0 0 0 .5-6.68c-.093-3.063-.527-6.1-.72-9.159a22 22 0 0 1 .591-7.62 24.209 24.209 0 0 1 4.829-8.873 19.082 19.082 0 0 0 3.674-6.431 125.672 125.672 0 0 0 3.206-13.424c.527-2.621.99-5.263 1.717-7.841.092-.335.228-.669.648-.57.463.1.356.484.285.805-.178.726-.392 1.446-.556 2.179-1.018 4.551-1.852 9.137-2.863 13.695a31.071 31.071 0 0 1-6.416 13.645 18.248 18.248 0 0 0-4.252 12.249c.029 2.9.4 5.768.641 8.645a40.706 40.706 0 0 1-.228 8.589c-.221 1.724-.441 3.44-.5 5.178-.022.591.284.811.811.577a3.575 3.575 0 0 1 4.06.712 20.982 20.982 0 0 1 2.706 2.692c1.239 1.5 2.428 3.041 3.646 4.557a5.378 5.378 0 0 0 2.884 1.923c.926.257 1.845.541 2.778.784a4.262 4.262 0 0 1 2.293 1.26.3.3 0 0 0 .084.094.3.3 0 0 0 .116.052.319.319 0 0 0 .127 0 .315.315 0 0 0 .115-.052.815.815 0 0 1 .619.028 28.289 28.289 0 0 0 10.376.641c2.414-.292 4.822-.57 7.25-.634 1.31-.035 2.614-.185 3.917-.3a19.221 19.221 0 0 1 5.989.121 17.649 17.649 0 0 1 4.024 1.524c.335.164.662.335 1 .506a1.466 1.466 0 0 0 .641.242 67.883 67.883 0 0 1 7.869.826 29.011 29.011 0 0 1 3.981.7c.321.085.6.256.5.648-.1.37-.421.342-.712.278-3.034-.684-6.125-.976-9.2-1.353a.985.985 0 0 0-.676.05 81.683 81.683 0 0 1 7.741 6.046 2.764 2.764 0 0 1 .726.819.486.486 0 0 1-.121.669.424.424 0 0 1-.169.086.433.433 0 0 1-.362-.071.437.437 0 0 1-.124-.143 7.1 7.1 0 0 0-1.332-1.282 57.541 57.541 0 0 0-8.852-6.473c-2.912-1.589-5.9-2.756-9.308-2.386-1.395.156-2.8.256-4.2.356-2.343.171-4.7.185-7.029.541a31.033 31.033 0 0 1-9.672.022c-.847-.136-1.687-.307-2.592-.478a32.813 32.813 0 0 1 1.425 4.594c.306 1.2.591 2.393.84 3.6s.491 2.422.619 3.647a27.736 27.736 0 0 1 .449 3.553c-.035 1.724.264 3.44.278 5.171.007 1.246.078 2.5.185 3.752a4.058 4.058 0 0 1-.349 1.731c-.206.563-.2 1.282-.783 1.709.142.064.192.1.242.114 5.825 1.83 11.843 2.749 17.818 3.824 4.188.755 8.411 1.325 12.627 1.916a73.774 73.774 0 0 0 10.7.869 2.626 2.626 0 0 0 1.916-.783 12.723 12.723 0 0 0 1.966-2.564A96.241 96.241 0 0 0 177 179.362c1.738-4.572 3.789-9.037 5.228-13.737.776-2.536 1.773-5.007 2.649-7.513a31.742 31.742 0 0 0 1.808-7.158c.207-1.951.364-3.909.713-5.847a91.132 91.132 0 0 1 2.428-9.628c2.384-8.09 4.948-16.144 5.553-24.64zm-30.249-54.794a1.743 1.743 0 0 0-1.311-1.866 4.224 4.224 0 0 1-2.684-2.036 12.9 12.9 0 0 1-1.446-3.39 48.066 48.066 0 0 1-1.161-7.592 26.2 26.2 0 0 0-3.005-9.813c-4.337-7.848-10.59-13.417-19.157-16.216a29.26 29.26 0 0 0-12.67-1.325 24.811 24.811 0 0 0-7.762 2.122 36.191 36.191 0 0 0-6.132 3.689 57 57 0 0 0-7.955 6.6 11.054 11.054 0 0 0-2.891 4.935 7.274 7.274 0 0 1-.919 2.272 22.565 22.565 0 0 0-2.172 4.843c-1.317 4.073-2.293 8.2-1.887 12.541a21.208 21.208 0 0 0 3.767 10.171 42.058 42.058 0 0 0 4.159 4.573 16.532 16.532 0 0 1 3.134 4.479 12.039 12.039 0 0 1 1.289 4.764 3.194 3.194 0 0 1-3.184 3.582c-.334.036-.669.086-1.046.136a.925.925 0 0 0 .128.235 4.341 4.341 0 0 0 6.153.071c.676-.733.876-.733 1.666-.093a12.265 12.265 0 0 0 3.789 2.066 2.555 2.555 0 0 0 2.485-.449 5.553 5.553 0 0 0 1.054-1.068.894.894 0 0 1 .234-.256.874.874 0 0 1 .314-.145.858.858 0 0 1 .346-.013.879.879 0 0 1 .324.122 2.021 2.021 0 0 0 2.151-.257 12.135 12.135 0 0 1-2.6-3.76 3.772 3.772 0 0 0-2.293-2.051 4 4 0 0 1-1.751-1.189 16.663 16.663 0 0 0-3.518-3.447 2.621 2.621 0 0 1-1.14-2.058 14.685 14.685 0 0 1-.157-1.838c.029-.669-.249-.811-.861-.847a9.056 9.056 0 0 1-4.024-.9 2.866 2.866 0 0 1-1.816-2.358 2.64 2.64 0 0 1 1.7-2.414.491.491 0 0 0 .05-.028 1.887 1.887 0 0 0 1.018-1.389 8.445 8.445 0 0 0 .107-2.927 13.191 13.191 0 0 0-1.759-4.864 11.92 11.92 0 0 1-1.652-6.523c.057-1.653.213-3.3.37-4.95a1.15 1.15 0 0 1 .292-.683c.677-.713 1.147-1.6 1.88-2.258.242-.228.093-.321-.128-.377-.413-.107-.826-.193-1.232-.314a.475.475 0 0 1-.389-.367.476.476 0 0 1 0-.188c.057-.321.292-.378.563-.364a3.052 3.052 0 0 1 .342.058 8.917 8.917 0 0 1 3.19 1.3c1.538 1 2.977 2.136 4.444 3.233a54.458 54.458 0 0 0 10.447 6.459 13.28 13.28 0 0 0 7.357 1.325 5.527 5.527 0 0 0 4.6-3.12 6.121 6.121 0 0 1 2.193-2.492 3.065 3.065 0 0 1 3.333-.171 5.012 5.012 0 0 1 2.208 2.286 7.088 7.088 0 0 1-.029 6.26c-.584 1.3-1.3 2.535-1.994 3.782a1.453 1.453 0 0 0-.249.576 31.449 31.449 0 0 0-.022 6.339 11.1 11.1 0 0 0 2.016 5.469 5.813 5.813 0 0 0 7.278 1.773 8.977 8.977 0 0 0 4.188-4.138c.534-1.039.647-1.089 1.759-.8.427.107.861.2 1.3.263a2.721 2.721 0 0 0 2.763-1.338 4.18 4.18 0 0 0 .484-3.006c-.071-.427-.349-.954.185-1.275s.848.186 1.2.449a17.222 17.222 0 0 0 1.88 1.339 2.094 2.094 0 0 0 1.424.363 1.709 1.709 0 0 0 1.439-1.524zM160.7 78.806c.1-.3.007-.4-.263-.5a17.461 17.461 0 0 1-1.866-.762c-.456-.228-.627-.157-.805.328a130.607 130.607 0 0 1-3.832 9.6 82.028 82.028 0 0 1-9.265 15.945c-.947 1.26-1.887 2.521-2.891 3.86.249.014.406.035.555.035a9.891 9.891 0 0 0 8.325-3.974 28.42 28.42 0 0 0 4.48-8.431c1.92-5.341 3.707-10.732 5.562-16.101zm-3.653-1.7a.431.431 0 0 0 .052-.171.429.429 0 0 0-.113-.332.431.431 0 0 0-.146-.1c-.491-.341-.947-.733-1.439-1.075a6.025 6.025 0 0 1-2.449-3.725 24.374 24.374 0 0 0-.9-3.041 2.864 2.864 0 0 0-1.588-1.808c-.213-.093-.456-.186-.52-.428-.107-.384-.292-.235-.505-.121a5.8 5.8 0 0 1-2.322.833 1.505 1.505 0 0 0-1.367.862 4.673 4.673 0 0 1 1.517 2 36.857 36.857 0 0 1 3.169 9.144 49.38 49.38 0 0 1 1.075 6.2.714.714 0 0 1-.121.591.459.459 0 0 1-.278.122c-.427.049-.484-.293-.527-.606-.135-.876-.256-1.759-.4-2.628a47.045 47.045 0 0 0-2.991-10.775 11.889 11.889 0 0 0-2.008-3.418c-.983 1.1-1.937 2.179-2.912 3.247-.649.7-.684.7-.243 1.517 2.543 4.729 3.1 10.006 4.152 15.148a.4.4 0 0 1 .024.172.389.389 0 0 1-.048.167.407.407 0 0 1-.111.133.424.424 0 0 1-.157.076.461.461 0 0 1-.342-.028.466.466 0 0 1-.228-.256 3.625 3.625 0 0 1-.228-.77c-.519-2.663-.911-5.355-1.595-7.99a27.212 27.212 0 0 0-2.464-6.459c-1.253 1.16-2.535 2.35-3.824 3.539-.164.157-.107.3-.036.463 1.816 4.1 2.692 8.468 3.711 12.8.064.285.042.52-.228.641a.484.484 0 0 1-.4 0 .48.48 0 0 1-.263-.3 2.475 2.475 0 0 1-.2-.6c-.164-.733-.335-1.467-.484-2.2a49.077 49.077 0 0 0-2.835-9.45c-.128-.306-.185-.477-.519-.157a23.8 23.8 0 0 1-3.063 2.55.4.4 0 0 0-.2.2.39.39 0 0 0-.016.279 1.885 1.885 0 0 1-.136 1.3 4.72 4.72 0 0 0-.092 3.333c.569 1.944 1.153 3.874 1.709 5.819.349 1.246.655 2.5.976 3.745.071.285.078.563-.257.677-.313.114-.52-.078-.634-.349a4.217 4.217 0 0 1-.228-.712c-.583-2.592-1.353-5.135-2.15-7.677-.556-1.788-.969-3.568-.164-5.405.214-.492.085-.584-.456-.442a4.434 4.434 0 0 1-1.374.071.913.913 0 0 1-.419-.1.9.9 0 0 1-.322-.286.534.534 0 0 1 .05-.741.446.446 0 0 1 .513-.14.445.445 0 0 1 .156.1c.406.435.855.192 1.289.128.207-.035.25-.17.186-.341-.3-.841-.57-1.695-.955-2.514a13.22 13.22 0 0 0-.448.427 16.947 16.947 0 0 0-3.226 3.9 3.161 3.161 0 0 0-.4 1.239 3.7 3.7 0 0 0 .719 2.321A33.077 33.077 0 0 1 129 89.153a4.626 4.626 0 0 1 .413 2.415 16.292 16.292 0 0 0-.135 4.208c.078.5.021 1.054.455 1.446.228.207.335.449.114.705a.53.53 0 0 1-.733.029 1.694 1.694 0 0 1-.677-1.289 18.377 18.377 0 0 1 .036-5.3 4.873 4.873 0 0 0-.947-2.948c-.079.427-.129.691-.171.954A85.819 85.819 0 0 0 126 102.464c-.007.263 0 .47.3.605a47.3 47.3 0 0 0 13.844 4.109.658.658 0 0 0 .387-.04.668.668 0 0 0 .3-.252 93.431 93.431 0 0 0 8.346-12.064c1.588-2.827 3.02-5.733 4.323-8.688s2.475-5.975 3.544-9.034zm-11.986-9.842a12.585 12.585 0 0 1-1.239-.321 7.782 7.782 0 0 1-4.722-4.923 20.794 20.794 0 0 1-.9-8.617c.014-.306.092-.584-.15-.862-.156-.171-.028-.391.079-.584q.982-1.74 1.944-3.489a9.73 9.73 0 0 0 1.154-3.183 5.288 5.288 0 0 0-2.151-5.1 2.235 2.235 0 0 0-2.742.129 6.652 6.652 0 0 0-2.521 4.7c-.036.285-.043.563-.406.577-.327.021-.484-.2-.555-.485a4.764 4.764 0 0 1-.043-.484 7.656 7.656 0 0 1-2.8 1.218 13.235 13.235 0 0 1-7.314-.769A46.575 46.575 0 0 1 112.3 39.1c-1.923-1.389-3.746-2.906-5.74-4.195-.912-.591-.655-.6-1.439.178a15.148 15.148 0 0 0-1.139 1.389 3.707 3.707 0 0 0-.741 2.144c-.057.861-.142 1.73-.206 2.592a11.3 11.3 0 0 0 1.36 6.694q.48.825.876 1.7a11.446 11.446 0 0 1 1.1 6.68 3.038 3.038 0 0 1-1.623 2.443 3.277 3.277 0 0 0-.755.534 1.191 1.191 0 0 0-.05 1.837 3.6 3.6 0 0 0 1.709 1.04 12.637 12.637 0 0 0 3.418.5c.463.014 1.254.633 1.19 1.018a9.819 9.819 0 0 0 .043 1.723 2.747 2.747 0 0 0 1.374 2.571 8.134 8.134 0 0 1 2.293 2.151 5.571 5.571 0 0 0 2.706 2.151 3.76 3.76 0 0 1 2.215 2.079 14.238 14.238 0 0 0 1.7 2.82 4.188 4.188 0 0 0 5.8 1 31.238 31.238 0 0 0 7.022-6.06c1.709-1.887 3.3-3.881 5.092-5.69.242-.242.52-.5.841-.185.3.292.106.6-.143.854-2.813 2.856-5.185 6.125-8.183 8.81-.149.135-.263.263-.164.5.485 1.161.955 2.329 1.439 3.5.079.192.214.107.328.021.349-.27.705-.534 1.039-.819a108.658 108.658 0 0 0 9.2-9.272c.738-.816 1.438-1.67 2.196-2.546zm-6.118 128.2c-.32-.057-.562-.107-.8-.149a118.864 118.864 0 0 1-14.25-3.212c-.15-.043-.371-.057-.392-.2-.107-.562-.613-.548-.976-.733-.555-.278-1.125-.506-1.673-.8-1.717-.9-3.454-1.787-5.135-2.763a5.525 5.525 0 0 0-5.384-.52 1.7 1.7 0 0 1-.328.093 3.554 3.554 0 0 1-3.688-1.061 14.765 14.765 0 0 1-1.93-2.8 64.9 64.9 0 0 1-4.822-10.8 6.836 6.836 0 0 0-2.884-3.967c-.47-.285-.6-.228-.833.185-.819 1.4-1.6 2.82-2.521 4.152a85.9 85.9 0 0 1-12.691 14.663 43.3 43.3 0 0 0-5.3 5.883c-.321.427-.3.712.192 1.011a12.041 12.041 0 0 0 3.952 1.574 121.928 121.928 0 0 0 12.834 1.994c4.336.42 8.673.733 13.025.968a103.384 103.384 0 0 0 12.7-.185c4.308-.3 8.567-1 12.854-1.467a57.294 57.294 0 0 0 7-1.51 3.133 3.133 0 0 0 1.047-.356zm.891-87.339c-.755-.121-1.389-.206-2.008-.327a49.354 49.354 0 0 1-11.367-3.611c-.462-.214-.555-.121-.534.349.057 1.139.036 2.279.128 3.411a7.961 7.961 0 0 0 1.994 5.178 4.33 4.33 0 0 0 2.486 1.481 5.388 5.388 0 0 0 3.205-.755c2.562-1.296 4.184-3.582 6.093-5.726zm-7.791 12.007a5.947 5.947 0 0 0 1.267-.9 14.482 14.482 0 0 1-2.293-.933c-.705-.477-.726-1.4-1.274-2.058a17.874 17.874 0 0 0-1.446 2.143.723.723 0 0 1-.152.243.7.7 0 0 1-.235.163.7.7 0 0 1-.56 0c-.584-.171-1.19-.277-1.845-.427.271.833.947 1.41 1 2.25.043.855-.7 1.432-.826 2.343.662-.263 1.26-.505 1.866-.726 1.253-.449 1.666-.328 2.492.712a4.383 4.383 0 0 0 1.069 1.133.457.457 0 0 0 .313.092c.157-.05.121-.228.1-.349a14.566 14.566 0 0 0-.314-1.588 1.66 1.66 0 0 1 .841-2.1zm-5.249-32.268c.378-.17.214-.356.078-.584a11.354 11.354 0 0 1-1.438-2.692c-.078-.263-.214-.27-.427-.192a6.69 6.69 0 0 1-1.745.37c-.492.029-.634.278-.727.691-.406 1.916-.826 3.839-1.118 5.783a20.177 20.177 0 0 0-.242 6.032 7.075 7.075 0 0 0 3.881 5.142c.029-1.531.157-2.927.242-4.323a82.705 82.705 0 0 1 1.268-9.728c.034-.193.04-.413.225-.499zm-2.735 100.073a13.927 13.927 0 0 0 .122-4.245c-.015-.3-.136-.384-.428-.391-.79-.029-1.581-.05-2.364-.15a27.335 27.335 0 0 1-8.076-2.307c-1.182-.563-2.379-1.083-3.725-1.695.129.577.243 1.054.335 1.538.057.292-.007.556-.342.627s-.5-.129-.584-.421a2.123 2.123 0 0 1-.085-.334c-.014-.285-.178-.385-.42-.47a19.179 19.179 0 0 1-6-3.291c-.042-.042-.1-.128-.206 0 .555 1.4 1.2 2.764 1.887 4.117a2.115 2.115 0 0 0 1.26 1.111 23.345 23.345 0 0 0 3.191.79 48.444 48.444 0 0 1 6.224 1.232 51.181 51.181 0 0 1 8.639 4.138c.37.207.448.214.569-.249zm-.491-5.591c.42.014.577-.064.52-.534-.093-.84-.128-1.688-.164-2.535s-.028-.862-.9-.983c-.228-.028-.456-.05-.684-.078a25.3 25.3 0 0 1-7.022-1.567 42.243 42.243 0 0 1-5.455-3.133c-.548-.342-1.111-.67-1.78-1.069.42 1.88.811 3.618 1.2 5.363.036.171.157.228.306.292 1.553.691 3.084 1.4 4.636 2.086a25.147 25.147 0 0 0 9.34 2.158zm-.32-4.978c.391.057.491-.085.448-.477a57.799 57.799 0 0 0-.7-4.444c-.078-.413-.128-.612-.7-.733-1.468-.314-2.956-.513-4.416-.869a23.41 23.41 0 0 1-8.973-4.722 25.84 25.84 0 0 0-2.7-1.923c.52 2.322 1.025 4.551 1.517 6.787.042.2.185.271.334.357 1.553.854 3.034 1.822 4.544 2.763a19.586 19.586 0 0 0 4.729 2.243 41.64 41.64 0 0 0 5.914 1.018zm.413 12.833c.156-.356.228-.683-.25-.961a66.042 66.042 0 0 0-4.379-2.343 25.855 25.855 0 0 0-5.327-2.186c-2.728-.648-5.548-.848-8.347-1.681a9.121 9.121 0 0 0 1.88 2.649 2.3 2.3 0 0 0 2.229.627 38.498 38.498 0 0 0 2.009-.534 4.22 4.22 0 0 1 3.14.27c.826.406 1.667.791 2.486 1.218 1.923 1.011 3.774 2.172 5.782 3.013.261.106.581.377.774-.073zm-1.012-19.513c-.228-.9-.491-1.866-.7-2.834a1.039 1.039 0 0 0-.932-.869c-.627-.121-1.254-.228-1.874-.356a13.758 13.758 0 0 1-7.6-3.867c-1.147-1.211-2.407-2.329-3.646-3.461a24.544 24.544 0 0 0-3.939-2.863 1.087 1.087 0 0 0 .007.235 69.236 69.236 0 0 1 1.752 5.683 1.065 1.065 0 0 0 .442.577c1.068.826 2.236 1.5 3.276 2.378a22.809 22.809 0 0 0 13.211 5.377zm-14.172 8.382a.519.519 0 0 0 .052-.22.542.542 0 0 0-.044-.221c-.243-1.083-.492-2.165-.734-3.248-.434-1.922-.876-3.838-1.3-5.768-.8-3.6-1.588-7.221-2.749-10.739a.873.873 0 0 0-.449-.62c-2.45-1.211-4.828-2.578-7.349-3.632a4.214 4.214 0 0 1-1.952-1.7c-3.147-4.878-6.174-9.821-9.03-14.87a51.112 51.112 0 0 0-3.39-5.7 3.527 3.527 0 0 0-1.274-1.239 5.244 5.244 0 0 1-2.486-2.707 10.55 10.55 0 0 0-.733-1.3 3.162 3.162 0 0 0-2.422-1.4 7.174 7.174 0 0 0-2.3.15c-2.528.6-5.006 1.41-7.57 1.859a35.886 35.886 0 0 0-6.2 2.036.961.961 0 0 0-.7 1.111 2.195 2.195 0 0 0 2.044 2.08 6.131 6.131 0 0 0 3.44-.506 27.539 27.539 0 0 1 5.612-1.531c.213-.036.455-.114.605.064.228.264.342.086.491-.064a28.028 28.028 0 0 1 2.293-2.2c.307-.242.613-.8 1.04-.306.392.449-.114.755-.42 1.026a39.1 39.1 0 0 0-4.173 4.315c-1.453 1.724-1.389 2.329.263 3.875.285.27.4.242.627-.079a33.974 33.974 0 0 1 4.5-5.191 6.092 6.092 0 0 1 1.317-1.026c.264-.142.542-.157.712.121a.476.476 0 0 1-.206.691 16.149 16.149 0 0 0-3.148 2.97 19.989 19.989 0 0 0-2.8 3.66 1.866 1.866 0 0 0-.284 1.6 10.051 10.051 0 0 0 1.808 2.691c.122-.2.214-.349.292-.5a41.188 41.188 0 0 1 4.615-6.495c.249-.3.549-.848 1-.449.5.428-.049.784-.306 1.1a39.753 39.753 0 0 0-4.857 7.029 1.2 1.2 0 0 0-.2.417 1.18 1.18 0 0 0 .128.9 1.156 1.156 0 0 0 .31.343 10.966 10.966 0 0 0 2.222 1.745 7.107 7.107 0 0 0 3.988.962 1.03 1.03 0 0 0 .755-.254 1.031 1.031 0 0 0 .349-.715 1.406 1.406 0 0 0-.491-1.339 11.539 11.539 0 0 0-2.116-1.609c-.263-.171-.455-.406-.277-.719s.484-.271.755-.107a10.554 10.554 0 0 1 2.535 1.994 2.279 2.279 0 0 1 .085 2.977 1.086 1.086 0 0 0-.2 1.111 22.153 22.153 0 0 0 1.909 4.451 2.443 2.443 0 0 1 .2.412.45.45 0 0 1-.492.612.445.445 0 0 1-.27-.156 2.634 2.634 0 0 1-.32-.477 20.611 20.611 0 0 1-2.03-4.9c-.036-.149-.043-.327-.257-.32a10.489 10.489 0 0 1-3.454-.5c.577.884 1.055 1.653 1.56 2.4a82.407 82.407 0 0 0 5.227 6.765 7.868 7.868 0 0 0 4.466 2.856 8.273 8.273 0 0 1 3.411 1.631c5.248 4.137 10.5 8.275 15.995 12.1.4.278.8.549 1.189.819a.6.6 0 0 1 .242.3.431.431 0 0 1 .019.178.445.445 0 0 1-.054.171.465.465 0 0 1-.29.23.5.5 0 0 1-.188.012.466.466 0 0 1-.177-.064 4 4 0 0 1-.684-.427q-2.8-2.008-5.583-4.017a.649.649 0 0 0-.239-.168.63.63 0 0 0-.288-.045c.626 1.054.683 2.243 1.573 3.183a15.822 15.822 0 0 0 3.39 2.927 19.789 19.789 0 0 0 3.464 1.654zm-13.3-11.052c.193-.335.178-.506-.135-.741-1.745-1.339-3.489-2.671-5.191-4.052a9.022 9.022 0 0 0-3.312-1.709c-.335-.093-.662-.207-1-.3a5.573 5.573 0 0 1-3.105-1.873c-.078-.1-.142-.243-.37-.221a14.129 14.129 0 0 0 .434 3.048.478.478 0 0 0 .153.272.483.483 0 0 0 .289.12 9.276 9.276 0 0 1 4.557 1.972c.962.712 1.88 1.481 2.806 2.229.257.207.371.477.136.755s-.492.15-.727-.007c-.1-.064-.178-.15-.27-.221a38.2 38.2 0 0 0-3.3-2.528 8.247 8.247 0 0 0-4.65-1.353 6.316 6.316 0 0 1-3.041-.6 15 15 0 0 1 .256 3.967 16.576 16.576 0 0 1-.683 5.063c-1.168 3.02-2.044 6.153-3.632 8.995a16.91 16.91 0 0 1-5.4 6.074c-.442.3-.449.47-.122.826.905.976 1.781 1.973 2.692 2.949.762.812 1.546 1.595 2.329 2.385.15.157.285.356.52.022a45.774 45.774 0 0 1 5.982-6.659 77.728 77.728 0 0 0 14.785-18.413zm-17.418-1.268a.68.68 0 0 0-.42-.719 13.722 13.722 0 0 1-2.827-1.994c-2.642-2.336-4.85-5.106-7.314-7.627-.135-.143-.221-.357-.513-.428a15.452 15.452 0 0 1-.37 4.017.809.809 0 0 0 .292.933c3.482 3.126 6.943 6.274 10.3 9.535a.721.721 0 0 0 .421.271 19.229 19.229 0 0 0 .431-3.988zm-.028-1.631a6.148 6.148 0 0 0-.193-1.866 2.379 2.379 0 0 0-1.6-1.887c-.484-.178-.969-.37-1.46-.527a4.249 4.249 0 0 1-2.343-1.78c-.477-.748-.968-1.482-1.446-2.229-1.146-1.824-2.179-3.718-3.475-5.448a3.026 3.026 0 0 0-3.646-1.019c.527.755 1.061 1.5 1.652 2.336.05-.4.014-.762.449-.776.406-.007.477.313.555.62a4.735 4.735 0 0 1 .157.676 3.056 3.056 0 0 0 .954 1.909c1.951 2.079 3.867 4.187 5.8 6.274a25.848 25.848 0 0 0 2.585 2.4 9.323 9.323 0 0 0 2.011 1.317zm-.834 6.972a.326.326 0 0 0 .039-.238.336.336 0 0 0-.131-.2 208.976 208.976 0 0 1-4.081-3.846c-2.2-2.129-4.558-4.088-6.787-6.2a.626.626 0 0 0-.1.107 20.546 20.546 0 0 1-2.685 4.9c-.221.292-.029.406.149.548q5.79 4.657 11.573 9.322c.221.178.37.264.491-.1.5-1.43 1.02-2.861 1.535-4.293zm-2.25 6.082a.563.563 0 0 0 .087-.219.552.552 0 0 0-.009-.236.568.568 0 0 0-.1-.212.56.56 0 0 0-.18-.152q-5.887-4.712-11.751-9.45c-.093-.072-.178-.143-.3-.228a1.79 1.79 0 0 0-.207.192 29.871 29.871 0 0 1-2.606 2.777c-.264.25-.157.357.071.521.577.42 1.147.847 1.7 1.3a116.228 116.228 0 0 1 10.44 9.551c.392.406.541.32.826-.086a29.33 29.33 0 0 0 2.029-3.758zm-3.3 5.363c.249-.257.22-.406-.022-.655q-1.506-1.549-3.076-3.049a102.2 102.2 0 0 0-9.237-7.954 9.01 9.01 0 0 0-.37-.257c-.185.014-.278.157-.392.25-.719.576-1.424 1.175-2.158 1.737-1.2.926-1.211.94.135 1.695A42.025 42.025 0 0 1 62.8 179.9a75.294 75.294 0 0 1 5.861 5.406c.349.356.591.356.947.014.592-.581 1.158-1.186 1.735-1.784zm-2.45-44.582c.064-.163-.05-.249-.157-.341a9.01 9.01 0 0 1-1.809-2.066c-.477 1.332-1.317 2.493-.42 3.818a3.426 3.426 0 0 0 2.92 1.41 2.911 2.911 0 0 1-.534-2.821zM67.782 186.5c.413-.178.456-.285.107-.641a67.849 67.849 0 0 0-13.46-10.659c-.207-.128-.456.022-.663-.313a4.739 4.739 0 0 1-.6-1.8 8.67 8.67 0 0 1-.064-1.139c0-.342.107-.648.506-.634s.463.327.448.669a3.91 3.91 0 0 0 .264 1.752 37.659 37.659 0 0 0 7.122-6.48c-.62 0-.912-.406-1.24-.741-2.271-2.279-4.386-4.707-6.558-7.079-.136-.15-.221-.37-.5-.377-.043.27-.086.534-.114.8-.256 2.528-.5 5.056-.762 7.585a25.243 25.243 0 0 0 .107 5.782c.05.378.1.763.164 1.14a3.363 3.363 0 0 0 2.2 2.891c2.478.94 4.43 2.7 6.4 4.387 1.61 1.389 2.949 3.048 4.48 4.515.845.803 1.102.817 2.163.342zm-5.94-19.762a15.892 15.892 0 0 0 3.882-11.188 1.184 1.184 0 0 0-.185-.6 68.7 68.7 0 0 0-4.58-6.317c-.626-.755-1.232-1.2-2.236-.869a3.133 3.133 0 0 1-.74.1c-1.475.114-2.949.22-4.074-1.054-.1-.114-.214-.342-.4-.235a.512.512 0 0 0-.206.512 3.9 3.9 0 0 0 .37 1.446c.135.306.192.627-.192.791-.335.142-.535-.107-.684-.371a2.66 2.66 0 0 1 .52-3.6 20.394 20.394 0 0 0 4.38-6.4c.256-.541.619-1.132.185-1.794-.086-.121 0-.285.078-.427a.721.721 0 0 0 .1-.382.728.728 0 0 0-.8-.708 2.546 2.546 0 0 0-.99.306 7.443 7.443 0 0 0-2.428 2.108q-3.348 4.134-6.68 8.275c-.242.307-.47.791-.947.6-.492-.2-.356-.747-.392-1.167 0-.022.007-.036.007-.057.121-.841.264-1.674.356-2.521a5.771 5.771 0 0 1 1.9-3.775c1.723-1.595 3.368-3.276 5.049-4.921a11.568 11.568 0 0 0 2.051-2.706 1.466 1.466 0 0 0-.143-1.9 1.932 1.932 0 0 0-2.186-.6 7.932 7.932 0 0 0-2.065 1.46c-.77.7-1.517 1.432-2.265 2.151a40.809 40.809 0 0 1-3.312 2.977 10.37 10.37 0 0 0-3.9 6.366 10.568 10.568 0 0 0-.491 3.056.446.446 0 0 1-.025.173.437.437 0 0 1-.09.149.422.422 0 0 1-.142.1.439.439 0 0 1-.171.038.373.373 0 0 1-.156 0 .421.421 0 0 1-.275-.1.417.417 0 0 1-.138-.259 2.529 2.529 0 0 1 .021-.8c.164-.854.306-1.709.52-2.549.007-.014.007-.036.014-.05a11.865 11.865 0 0 1 2.037-4.679c.684-.84.662-.847-.271-1.46a.285.285 0 0 0-.094-.058.276.276 0 0 0-.11-.017.283.283 0 0 0-.107.028.256.256 0 0 0-.087.069 3.683 3.683 0 0 0-1.46 2.656 14.289 14.289 0 0 0-.008 3.169.684.684 0 0 1-.014.321.43.43 0 0 1-.159.223.421.421 0 0 1-.261.083c-.356.021-.484-.242-.513-.57a6.688 6.688 0 0 1-.071-.748c.043-3.788-.043-4.408 3.048-6.851a72.354 72.354 0 0 0 6.4-5.6c1-1.011 1.011-1.2.385-2.486-.043-.085-.086-.171-.136-.256a1.4 1.4 0 0 0-.822-.779 1.4 1.4 0 0 0-1.129.088 6.87 6.87 0 0 0-2.094 1.425 61.509 61.509 0 0 1-5.241 4.358 32.027 32.027 0 0 0-2.956 2.5 2 2 0 0 0-.683 1.176 39.808 39.808 0 0 0-.242 1.837 53.126 53.126 0 0 0-.278 5.541 3.22 3.22 0 0 0 1.344 2.934c.684.442 1.381.84 2.072 1.275a.279.279 0 0 0 .2.062.274.274 0 0 0 .185-.1c.363-.285.669-.114.84.249a9.336 9.336 0 0 1 .385 1.09 2.467 2.467 0 0 0 1.887 1.823 7.762 7.762 0 0 1 3.881 1.652.165.165 0 0 0 .107.05c.5.014.612.378.719.762a2.555 2.555 0 0 0 1.6 1.781A6.047 6.047 0 0 1 50.875 155a97.213 97.213 0 0 1 2.016 2.143c2.827 3.084 5.519 6.288 8.545 9.187a1.87 1.87 0 0 1 .307.477c.035-.028.078-.043.099-.071zm3.561-20.98c.463-.121.527-.314.164-.641-.634-.584-1.282-1.161-1.894-1.774a100.257 100.257 0 0 1-4.679-4.935 22.505 22.505 0 0 1-4.494 7.1c-.214.207-.2.335.007.556a3.023 3.023 0 0 0 2.621.911c1.652-.128 3.283-.413 4.914-.669a31.542 31.542 0 0 0 3.358-.55zm-9.678-10.619a.705.705 0 0 0 .171-.156c-.25-.271-.5-.52-.719-.784-.178-.213-.3-.192-.492.014-1.745 1.874-3.6 3.632-5.441 5.406-.975.94-.954.94.015 1.873.263.249.4.242.612-.043.6-.8 1.218-1.595 1.866-2.357 1.21-1.433 2.263-3.036 3.988-3.955zm-5.014-5.6c.186-.164.228-.271.015-.435a2.357 2.357 0 0 1-.328-.327c-.206-.257-.363-.292-.612.007a18.3 18.3 0 0 1-2 1.994c-1.545 1.36-3.09 2.713-4.707 4-.114.093-.4.207-.228.37a6.184 6.184 0 0 0 .94.684c.128-.1.242-.2.356-.292 2.306-1.884 4.321-4.063 6.564-6.007zm-2.67 14.179c1.061-1.282 1.061-1.289-.356-2.386a11.707 11.707 0 0 0-.72 3.582c.392-.39.735-.796 1.076-1.202zm-2.08-19.164c.264-.157.2-.25.022-.414q-1.14-1.11-2.272-2.229c-1.375-1.381-2.692-2.82-4.166-4.094a3.577 3.577 0 0 0-2.8-.969c-2.357.235-4.693.634-7.022 1.04a6.058 6.058 0 0 0-2.578.968c-.413.3-.484.62-.1 1 .335.321.663.649 1 .969 2.13 2.015 4.466 3.8 6.659 5.733.292.256.363.107.477-.136.6-1.3 1.261-2.556 1.966-3.8a4.831 4.831 0 0 1 1.346-1.567 2.68 2.68 0 0 1 4.237 1.652 5.852 5.852 0 0 1-.577 3.7c-.285.62-.57 1.24-.883 1.93a1.555 1.555 0 0 0 .6-.4 41.2 41.2 0 0 1 4.091-3.389zm-4.55 1.16a4.383 4.383 0 0 0 .356-2.927 1.72 1.72 0 0 0-2.714-.947 3.261 3.261 0 0 0-.953 1.06 43.6 43.6 0 0 0-3.176 6.6 5.528 5.528 0 0 0-.406 2.251c.071 1.467.15 2.927.221 4.386.028 0 .049.008.078.008.05-.3.107-.606.135-.905a3.9 3.9 0 0 1 1.418-2.855c.982-.813 1.915-1.674 2.941-2.429a1.087 1.087 0 0 0 .427-.449c.476-1.299 1.124-2.531 1.673-3.799z"></path><path class="c" d="M195.144 103.119a33.8 33.8 0 0 1 .235 7.72c-.6 8.5-3.169 16.55-5.555 24.64a91.132 91.132 0 0 0-2.428 9.628c-.349 1.938-.506 3.9-.712 5.847a31.8 31.8 0 0 1-1.809 7.158c-.876 2.506-1.873 4.977-2.649 7.513-1.439 4.7-3.49 9.165-5.228 13.737a96.155 96.155 0 0 1-7.534 15.148 12.723 12.723 0 0 1-1.966 2.564 2.626 2.626 0 0 1-1.916.783 73.774 73.774 0 0 1-10.7-.869c-4.216-.591-8.439-1.161-12.627-1.916-5.975-1.075-11.993-1.994-17.818-3.824-.05-.014-.1-.05-.242-.114.584-.427.577-1.146.783-1.709a4.058 4.058 0 0 0 .349-1.731 47.278 47.278 0 0 1-.185-3.752c-.014-1.731-.313-3.447-.278-5.171a27.736 27.736 0 0 0-.449-3.553c-.128-1.225-.377-2.443-.619-3.647s-.534-2.407-.84-3.6a32.813 32.813 0 0 0-1.425-4.594c.905.171 1.745.342 2.593.478a31.027 31.027 0 0 0 9.671-.022c2.329-.356 4.686-.37 7.029-.541 1.4-.1 2.806-.2 4.2-.356 3.4-.37 6.4.8 9.307 2.386a57.6 57.6 0 0 1 8.853 6.473 7.12 7.12 0 0 1 1.331 1.282.449.449 0 0 0 .124.143.433.433 0 0 0 .362.071.424.424 0 0 0 .169-.086.486.486 0 0 0 .121-.669 2.764 2.764 0 0 0-.726-.819 81.683 81.683 0 0 0-7.741-6.046.979.979 0 0 1 .676-.05c3.077.377 6.168.669 9.2 1.353.292.064.612.092.712-.278.1-.392-.178-.563-.5-.648a29.011 29.011 0 0 0-3.981-.7 67.883 67.883 0 0 0-7.869-.826 1.466 1.466 0 0 1-.641-.242c-.335-.171-.662-.342-1-.506l.057-.107a.51.51 0 0 0 .285.05c.441-.028.47-.327.4-.719a2.825 2.825 0 0 1 .206-1.41 24.838 24.838 0 0 0 1.025-7.649 9.853 9.853 0 0 1 .827-3.931 61.972 61.972 0 0 0 3.361-11.579c.52-2.308.812-4.665 1.453-6.958.085-.285.121-.606-.257-.712s-.562.149-.662.47a30.931 30.931 0 0 0-.79 3.61c-.549 2.778-1.083 5.555-1.831 8.29a.555.555 0 0 1-.069.228.586.586 0 0 1-.158.178c.064-4.074-.356-8.048-.35-12.043a54.17 54.17 0 0 1 .869-7.8c1.425-9.607 4.252-18.851 7.264-28.052 1.482-4.522 2.927-9.051 4.544-13.531.164-.456.256-.6.762-.3 2.827 1.695 5.875 2.977 8.781 4.522a51.59 51.59 0 0 1 9.407 5.968c3.38 2.872 5.873 6.312 6.599 10.82z"></path><path class="d" d="M168.808 80.842c.121.072.25.114.164.342-1.581 4.1-2.934 8.276-4.28 12.456-1.859 5.8-3.774 11.573-5.3 17.469a146.022 146.022 0 0 0-3.162 16.508 48.812 48.812 0 0 0-.1 9.237c.107 2.193.142 4.387.214 6.587.035 1 .092 2 .135 3a3.026 3.026 0 0 1-.356 1.268 35.978 35.978 0 0 0-1.332 3.511 8.833 8.833 0 0 0-.335 2.279 25.149 25.149 0 0 1-.982 7.7 5.37 5.37 0 0 0-.292 1.881.632.632 0 0 0 .069.333.643.643 0 0 0 .23.25l-.057.107a17.649 17.649 0 0 0-4.024-1.524 19.221 19.221 0 0 0-5.989-.121c-1.3.114-2.607.264-3.917.3-2.428.064-4.836.342-7.25.634a28.289 28.289 0 0 1-10.376-.641.815.815 0 0 0-.619-.028.315.315 0 0 1-.115.052.319.319 0 0 1-.127 0 .3.3 0 0 1-.116-.052.3.3 0 0 1-.084-.094 4.262 4.262 0 0 0-2.293-1.26c-.933-.243-1.852-.527-2.778-.784a5.378 5.378 0 0 1-2.884-1.923c-1.218-1.516-2.407-3.055-3.646-4.557a20.982 20.982 0 0 0-2.706-2.692 3.575 3.575 0 0 0-4.06-.712c-.527.234-.833.014-.811-.577.064-1.738.284-3.454.5-5.178a40.7 40.7 0 0 0 .228-8.588c-.242-2.878-.612-5.747-.641-8.646a18.248 18.248 0 0 1 4.252-12.249 31.066 31.066 0 0 0 6.416-13.645c1.011-4.558 1.845-9.144 2.863-13.695.164-.733.378-1.453.556-2.179.071-.321.178-.7-.285-.805l.035-.163a17.347 17.347 0 0 0 5.683.341c.406-.05.392.114.328.42-.506 2.415-1.047 4.822-1.31 7.279a16.881 16.881 0 0 0 .007 5.013 7.936 7.936 0 0 0 4.23 5.491.856.856 0 0 1 .513.9 29.454 29.454 0 0 0 .249 5.192 7.789 7.789 0 0 0 4.074 6.018 10.534 10.534 0 0 0-1.539 2.072.656.656 0 0 1-.847.356 10.036 10.036 0 0 0-1.581-.335c-.883-.121-1.253.378-.876 1.176a16.574 16.574 0 0 0 .826 1.523 1 1 0 0 1 .028 1.126 5.407 5.407 0 0 0-.683 1.588 1 1 0 0 0 .235 1.075c.313.271.648.157.975.036.741-.278 1.482-.556 2.215-.855a.784.784 0 0 1 1.047.3c.271.371.577.72.883 1.068a2.463 2.463 0 0 0 .784.585c1 .477 1.68.05 1.659-1.069a6.07 6.07 0 0 0-.313-1.816.941.941 0 0 1-.082-.361.94.94 0 0 1 .573-.885 13.072 13.072 0 0 0 1.531-1.033c.669-.512.591-1.068-.185-1.381a22.13 22.13 0 0 0-1.788-.648 1.495 1.495 0 0 1-1.046-.983c-.143-.392-.349-.762-.556-1.211a7.831 7.831 0 0 0 3.326-.79 14.187 14.187 0 0 0 4.4-3.518c.712-.805 1.453-1.6 2.108-2.45a1.516 1.516 0 0 1 1.467-.641 10.706 10.706 0 0 0 5.925-1.189 13.124 13.124 0 0 0 3.853-3.447 27.969 27.969 0 0 0 3.532-6.281c1.417-3.34 2.479-6.8 3.661-10.227q1.346-3.9 2.663-7.819c.135-.392.285-.5.7-.356a14.368 14.368 0 0 0 2.906.484 9.571 9.571 0 0 1 3.68 1.451z"></path><path d="M163.823 54.179a1.743 1.743 0 0 1 1.311 1.866 1.709 1.709 0 0 1-1.439 1.524 2.094 2.094 0 0 1-1.424-.363 17.222 17.222 0 0 1-1.88-1.339c-.349-.263-.67-.762-1.2-.449s-.256.848-.185 1.275a4.175 4.175 0 0 1-.484 3.006 2.721 2.721 0 0 1-2.763 1.338 13.664 13.664 0 0 1-1.3-.263c-1.111-.292-1.225-.242-1.759.8a8.977 8.977 0 0 1-4.188 4.138 5.813 5.813 0 0 1-7.278-1.773 11.1 11.1 0 0 1-2.016-5.469 31.449 31.449 0 0 1 .022-6.339 1.453 1.453 0 0 1 .249-.576c.691-1.247 1.41-2.486 1.994-3.782a7.088 7.088 0 0 0 .029-6.26 5.012 5.012 0 0 0-2.208-2.286 3.065 3.065 0 0 0-3.333.171 6.128 6.128 0 0 0-2.193 2.492 5.527 5.527 0 0 1-4.6 3.12 13.28 13.28 0 0 1-7.357-1.325 54.458 54.458 0 0 1-10.447-6.459c-1.467-1.1-2.906-2.236-4.444-3.233a8.917 8.917 0 0 0-3.19-1.3 3.052 3.052 0 0 0-.342-.058c-.271-.014-.506.043-.563.364a.476.476 0 0 0 0 .188.476.476 0 0 0 .389.367c.406.121.819.207 1.232.314.221.056.37.149.128.377-.733.662-1.2 1.545-1.88 2.258a1.15 1.15 0 0 0-.292.683c-.157 1.645-.313 3.3-.37 4.95a11.928 11.928 0 0 0 1.652 6.523 13.174 13.174 0 0 1 1.759 4.864 8.42 8.42 0 0 1-.107 2.927 1.887 1.887 0 0 1-1.018 1.389.491.491 0 0 1-.05.028 2.622 2.622 0 0 0-1.7 2.414 2.869 2.869 0 0 0 1.816 2.358 9.056 9.056 0 0 0 4.024.9c.612.036.89.178.861.847a14.685 14.685 0 0 0 .157 1.838 2.621 2.621 0 0 0 1.14 2.058 16.663 16.663 0 0 1 3.518 3.447 4 4 0 0 0 1.751 1.189 3.772 3.772 0 0 1 2.293 2.051 12.135 12.135 0 0 0 2.6 3.76 2.021 2.021 0 0 1-2.151.257.879.879 0 0 0-.324-.122.858.858 0 0 0-.346.013.874.874 0 0 0-.314.145.894.894 0 0 0-.234.256 5.548 5.548 0 0 1-1.053 1.068 2.557 2.557 0 0 1-2.486.449 12.265 12.265 0 0 1-3.789-2.066c-.79-.64-.989-.64-1.666.093a4.338 4.338 0 0 1-6.153-.071.925.925 0 0 1-.128-.235c.377-.05.712-.1 1.047-.136a3.194 3.194 0 0 0 3.183-3.582 12.039 12.039 0 0 0-1.289-4.764 16.532 16.532 0 0 0-3.134-4.479 42.058 42.058 0 0 1-4.159-4.573 21.208 21.208 0 0 1-3.76-10.182c-.406-4.337.57-8.468 1.887-12.541a22.565 22.565 0 0 1 2.172-4.843 7.274 7.274 0 0 0 .919-2.272 11.063 11.063 0 0 1 2.891-4.935 57 57 0 0 1 7.955-6.6 36.191 36.191 0 0 1 6.132-3.689 24.811 24.811 0 0 1 7.762-2.122 29.26 29.26 0 0 1 12.67 1.325c8.567 2.8 14.82 8.368 19.157 16.216a26.2 26.2 0 0 1 3.005 9.813 48.066 48.066 0 0 0 1.161 7.592 12.9 12.9 0 0 0 1.446 3.39 4.23 4.23 0 0 0 2.684 2.036zM135.2 37.109c.342-.007.769-.007.747-.506-.021-.456-.413-.427-.747-.434-.648-.014-1.3-.029-1.959-.036a32.785 32.785 0 0 1-9.407-1.3 49.835 49.835 0 0 1-6.737-2.549c-.264-.129-.527-.207-.712.078-.207.306-.043.555.22.733a4.192 4.192 0 0 0 .663.357c5.077 2.179 10.29 3.781 15.909 3.66.679.004 1.348.018 2.023-.003zm.448-2.329c.029-.37-.242-.484-.555-.534a3.066 3.066 0 0 1-.456-.071 51.646 51.646 0 0 1-10.4-3.945c-.264-.143-.52-.221-.713.071a.471.471 0 0 0-.081.387.464.464 0 0 0 .088.183.476.476 0 0 0 .157.128 8.621 8.621 0 0 0 1.047.612 63.916 63.916 0 0 0 9.208 3.376c.349.1.7.171 1.062.256.332-.028.624-.085.645-.463z" style="fill:#f9dfc2"></path><path class="c" d="M160.434 78.307c.27.1.363.2.263.5-1.852 5.369-3.639 10.76-5.562 16.1a28.437 28.437 0 0 1-4.48 8.432 9.894 9.894 0 0 1-8.325 3.973c-.149 0-.306-.021-.555-.035 1-1.339 1.944-2.6 2.891-3.86a82.028 82.028 0 0 0 9.265-15.945 130.607 130.607 0 0 0 3.832-9.6c.178-.485.349-.556.805-.328a17.461 17.461 0 0 0 1.866.763z"></path><path class="c" d="M156.837 76.5a.431.431 0 0 1 .146.1.429.429 0 0 1 .113.332.431.431 0 0 1-.052.171 123.57 123.57 0 0 1-3.547 9.03l-2.108-.2a.712.712 0 0 0 .126-.282.7.7 0 0 0 0-.309 49.38 49.38 0 0 0-1.075-6.2A36.857 36.857 0 0 0 147.266 70a4.673 4.673 0 0 0-1.517-2 1.5 1.5 0 0 1 1.367-.862 5.8 5.8 0 0 0 2.322-.833c.213-.114.4-.263.505.121.064.242.307.335.52.428a2.864 2.864 0 0 1 1.588 1.808 24.374 24.374 0 0 1 .9 3.041 6.028 6.028 0 0 0 2.449 3.725c.49.337.946.729 1.437 1.072z"></path><path class="c" d="m151.389 85.934 2.108.2a99.752 99.752 0 0 1-4.323 8.688 93.431 93.431 0 0 1-8.346 12.064.668.668 0 0 1-.3.252.658.658 0 0 1-.387.04 47.3 47.3 0 0 1-13.844-4.109c-.3-.135-.306-.342-.3-.605a85.945 85.945 0 0 1 1.353-13.09c.043-.263.092-.527.171-.954a4.873 4.873 0 0 1 .947 2.948 18.377 18.377 0 0 0-.036 5.3 1.694 1.694 0 0 0 .677 1.289.53.53 0 0 0 .733-.029c.221-.256.114-.5-.114-.705-.434-.392-.377-.947-.455-1.446a16.292 16.292 0 0 1 .135-4.208 4.626 4.626 0 0 0-.408-2.416 33.077 33.077 0 0 0-1.98-3.454 3.7 3.7 0 0 1-.719-2.321 3.161 3.161 0 0 1 .4-1.239 16.947 16.947 0 0 1 3.226-3.9c.135-.135.277-.271.448-.427.385.819.656 1.673.955 2.514.064.171.021.306-.186.341-.434.064-.883.307-1.288-.128a.444.444 0 0 0-.67.036.534.534 0 0 0-.05.741.906.906 0 0 0 .741.391 4.432 4.432 0 0 0 1.374-.071c.541-.142.67-.05.456.442-.805 1.837-.392 3.617.164 5.405.8 2.542 1.567 5.085 2.151 7.677a4.125 4.125 0 0 0 .227.712c.114.271.321.463.634.349.335-.114.328-.392.257-.677-.321-1.246-.627-2.5-.976-3.745-.556-1.945-1.139-3.875-1.709-5.819a4.72 4.72 0 0 1 .092-3.333 1.885 1.885 0 0 0 .136-1.3.394.394 0 0 1 .213-.477 23.8 23.8 0 0 0 3.063-2.55c.334-.32.391-.149.52.157a49.145 49.145 0 0 1 2.834 9.45c.149.734.32 1.468.484 2.2a2.475 2.475 0 0 0 .2.6.484.484 0 0 0 .662.3c.271-.121.292-.356.228-.641-1.019-4.329-1.895-8.7-3.711-12.8-.071-.164-.128-.306.036-.463 1.289-1.189 2.571-2.379 3.824-3.539a27.212 27.212 0 0 1 2.464 6.459c.684 2.635 1.076 5.327 1.6 7.99a3.565 3.565 0 0 0 .227.77.466.466 0 0 0 .228.256.461.461 0 0 0 .342.028.424.424 0 0 0 .157-.076.407.407 0 0 0 .111-.133.389.389 0 0 0 .048-.167.4.4 0 0 0-.024-.172c-1.047-5.142-1.609-10.419-4.152-15.148-.441-.812-.406-.812.243-1.517.975-1.068 1.93-2.15 2.912-3.247a11.9 11.9 0 0 1 2.009 3.418 47.146 47.146 0 0 1 2.991 10.775c.142.869.263 1.752.4 2.628.043.313.1.655.527.606a.459.459 0 0 0 .27-.12z"></path><path class="f" d="M143.819 66.941a12.585 12.585 0 0 0 1.239.321c-.755.876-1.453 1.73-2.193 2.535a108.658 108.658 0 0 1-9.2 9.272c-.334.285-.69.549-1.039.819-.114.086-.249.171-.328-.021-.484-1.168-.954-2.336-1.439-3.5-.1-.235.015-.363.164-.5 3-2.685 5.37-5.954 8.183-8.81.249-.256.441-.562.143-.854-.321-.314-.6-.057-.841.185-1.794 1.809-3.383 3.8-5.092 5.69a31.238 31.238 0 0 1-7.022 6.06 4.188 4.188 0 0 1-5.8-1 14.238 14.238 0 0 1-1.7-2.82 3.76 3.76 0 0 0-2.215-2.079 5.571 5.571 0 0 1-2.706-2.151 8.134 8.134 0 0 0-2.293-2.151 2.747 2.747 0 0 1-1.374-2.571 9.819 9.819 0 0 1-.043-1.723c.064-.385-.727-1-1.19-1.018a12.637 12.637 0 0 1-3.418-.5 3.6 3.6 0 0 1-1.709-1.04 1.19 1.19 0 0 1-.28-1.435 1.178 1.178 0 0 1 .33-.4 3.247 3.247 0 0 1 .755-.534 3.038 3.038 0 0 0 1.623-2.443 11.446 11.446 0 0 0-1.1-6.68q-.4-.868-.876-1.7a11.3 11.3 0 0 1-1.36-6.694c.064-.862.149-1.731.206-2.592a3.707 3.707 0 0 1 .741-2.144 15.148 15.148 0 0 1 1.139-1.389c.784-.776.527-.769 1.439-.178 1.994 1.289 3.817 2.806 5.74 4.195a46.575 46.575 0 0 0 10.4 5.975 13.235 13.235 0 0 0 7.314.769 7.656 7.656 0 0 0 2.8-1.218 4.764 4.764 0 0 0 .043.484c.071.285.228.506.555.485.363-.015.37-.292.406-.577a6.652 6.652 0 0 1 2.521-4.7 2.235 2.235 0 0 1 2.742-.129 5.288 5.288 0 0 1 2.151 5.1 9.73 9.73 0 0 1-1.154 3.183q-.962 1.752-1.944 3.489c-.107.193-.235.413-.079.584.242.278.164.556.15.862a20.794 20.794 0 0 0 .9 8.617 7.782 7.782 0 0 0 4.715 4.921zm-4.871-20.688c.32-.107.676-.221.562-.648s-.463-.392-.8-.278c-.371.114-.734.228-1.247.392a12.206 12.206 0 0 1 1.425-2.443c.192-.221.285-.491.021-.712a.513.513 0 0 0-.175-.1.522.522 0 0 0-.2-.021.5.5 0 0 0-.344.19 2.7 2.7 0 0 0-.435.541 16.127 16.127 0 0 0-1.944 4.295 4.813 4.813 0 0 0-.192 1.766c.043.406.2.812.7.733s.356-.47.278-.826a2.128 2.128 0 0 1 1.267-2.5 11.358 11.358 0 0 1 1.084-.389zm-20.133 17.918c.171-.271.207-.57-.114-.762s-.534.007-.7.278a19.616 19.616 0 0 1-1.681 2.35 5.154 5.154 0 0 1-2.136 1.787.416.416 0 0 0-.268.214.419.419 0 0 0-.017.342.531.531 0 0 0 .57.363 2.144 2.144 0 0 0 .982-.5 15.169 15.169 0 0 0 3.364-4.072zm-1.51 7.193a4 4 0 0 0 1.389-1.987.417.417 0 0 0-.313-.406.491.491 0 0 0-.338.018.486.486 0 0 0-.246.231 6.4 6.4 0 0 1-1.04 1.431.4.4 0 0 0-.134.284.4.4 0 0 0 .026.158.378.378 0 0 0 .087.135.456.456 0 0 0 .26.171.465.465 0 0 0 .309-.035zm-2.314-26.749a.457.457 0 0 0 .01-.341.45.45 0 0 0-.231-.25 1.649 1.649 0 0 0-.484-.178 33.734 33.734 0 0 0-5.484-.691 5.69 5.69 0 0 0-.691.007 4.932 4.932 0 0 0-2.9.976 1.011 1.011 0 0 0-.378 1.275.483.483 0 0 0 .52.292.378.378 0 0 0 .356-.392c-.007-.463.314-.62.655-.776a6.756 6.756 0 0 1 3.625-.363 26.538 26.538 0 0 1 4.43.7.423.423 0 0 0 .172.031.432.432 0 0 0 .169-.04.411.411 0 0 0 .141-.1.441.441 0 0 0 .09-.15zm-4.679 9.066c.805.413 1.446.021 1.438-1.047a4.013 4.013 0 0 0-2.236-2.913.981.981 0 0 0-1.46 1.225 4.933 4.933 0 0 0 2.258 2.735z"></path><path class="b" d="M139.51 45.605c.114.427-.242.541-.562.648a11.358 11.358 0 0 0-1.083.392 2.129 2.129 0 0 0-1.267 2.5c.078.356.22.747-.278.825s-.655-.327-.7-.733a4.816 4.816 0 0 1 .192-1.766 16.127 16.127 0 0 1 1.944-4.295 2.7 2.7 0 0 1 .435-.541.5.5 0 0 1 .344-.19.522.522 0 0 1 .2.021.513.513 0 0 1 .175.1c.264.221.171.492-.021.712a12.206 12.206 0 0 0-1.425 2.443c.513-.164.876-.278 1.247-.392.336-.116.689-.144.799.276z"></path><path class="d" d="M138.136 195.315c.242.042.484.092.8.149a3.133 3.133 0 0 1-1.046.356 57.107 57.107 0 0 1-7 1.51c-4.287.47-8.546 1.168-12.854 1.467a103.384 103.384 0 0 1-12.7.185 306.28 306.28 0 0 1-13.025-.968 121.928 121.928 0 0 1-12.834-1.994 12.041 12.041 0 0 1-3.952-1.574c-.491-.3-.513-.584-.192-1.011a43.3 43.3 0 0 1 5.3-5.883 85.9 85.9 0 0 0 12.687-14.663c.925-1.332 1.7-2.749 2.521-4.152.235-.413.363-.47.833-.185a6.836 6.836 0 0 1 2.884 3.967 64.9 64.9 0 0 0 4.822 10.8 14.765 14.765 0 0 0 1.93 2.8 3.554 3.554 0 0 0 3.69 1.063 1.7 1.7 0 0 0 .328-.093 5.525 5.525 0 0 1 5.384.52c1.681.976 3.418 1.859 5.135 2.763.548.292 1.118.52 1.673.8.363.185.869.171.976.733.021.143.242.157.392.2a118.864 118.864 0 0 0 14.248 3.21zm-.313-87.515c.619.121 1.253.206 2.008.327-1.909 2.144-3.532 4.43-6.1 5.726a5.388 5.388 0 0 1-3.205.755 4.33 4.33 0 0 1-2.486-1.481 7.961 7.961 0 0 1-1.994-5.178c-.092-1.132-.071-2.272-.128-3.411-.021-.47.072-.563.534-.349a49.354 49.354 0 0 0 11.371 3.611z"></path><path class="b" d="M135.949 36.6c.022.5-.405.5-.747.506-.677.021-1.346.007-2.023.007-5.619.121-10.832-1.481-15.909-3.66a4.192 4.192 0 0 1-.663-.357c-.263-.178-.427-.427-.22-.733.185-.285.448-.206.712-.078a49.835 49.835 0 0 0 6.737 2.549 32.785 32.785 0 0 0 9.407 1.3c.656.007 1.311.022 1.959.036.334.006.726-.022.747.43zm-.849-2.354c.313.05.584.164.555.534s-.313.435-.64.463c-.357-.085-.713-.157-1.062-.256a63.916 63.916 0 0 1-9.208-3.376 8.621 8.621 0 0 1-1.052-.611.476.476 0 0 1-.157-.128.467.467 0 0 1-.09-.386.459.459 0 0 1 .083-.184c.193-.292.449-.214.713-.071a51.646 51.646 0 0 0 10.4 3.945 3.046 3.046 0 0 0 .458.07z"></path><path d="M133.308 119.235a5.953 5.953 0 0 1-1.268.9 1.66 1.66 0 0 0-.841 2.1 14.566 14.566 0 0 1 .314 1.588c.021.121.057.3-.1.349a.457.457 0 0 1-.313-.092 4.362 4.362 0 0 1-1.068-1.133c-.827-1.04-1.24-1.16-2.493-.712-.605.221-1.2.463-1.866.727.128-.912.869-1.489.826-2.343s-.726-1.418-1-2.251c.655.15 1.261.257 1.845.428a.726.726 0 0 0 .28.057.713.713 0 0 0 .28-.058.7.7 0 0 0 .235-.163.723.723 0 0 0 .152-.243 17.874 17.874 0 0 1 1.446-2.143c.548.655.569 1.581 1.274 2.058a14.454 14.454 0 0 0 2.297.931z" style="fill:#f9f4c3"></path><path class="c" d="M126.869 87.28c.136.228.3.414-.078.584-.185.086-.192.306-.228.5a82.465 82.465 0 0 0-1.267 9.728c-.086 1.4-.214 2.792-.243 4.323a7.075 7.075 0 0 1-3.881-5.142 20.176 20.176 0 0 1 .242-6.032c.292-1.944.713-3.867 1.118-5.783.093-.413.236-.662.727-.691A6.69 6.69 0 0 0 125 84.4c.213-.078.349-.071.427.192a11.39 11.39 0 0 0 1.442 2.688zm-2.691 96.412a13.927 13.927 0 0 1-.122 4.245c-.121.463-.2.456-.569.249a51.181 51.181 0 0 0-8.639-4.138 48.444 48.444 0 0 0-6.224-1.232 23.345 23.345 0 0 1-3.191-.79 2.115 2.115 0 0 1-1.26-1.111c-.684-1.353-1.332-2.721-1.887-4.117.107-.128.164-.042.206 0a19.179 19.179 0 0 0 6 3.291c.242.085.406.185.42.47a2.123 2.123 0 0 0 .085.334c.086.292.257.492.584.421s.4-.335.342-.627c-.092-.484-.206-.961-.335-1.538 1.346.612 2.543 1.132 3.725 1.695a27.335 27.335 0 0 0 8.076 2.307c.783.1 1.574.121 2.364.15.289.007.41.092.425.391z"></path><path class="c" d="M124.085 181.812c.057.47-.1.548-.52.534a25.137 25.137 0 0 1-9.343-2.158c-1.553-.683-3.084-1.395-4.637-2.086-.149-.064-.27-.121-.306-.292-.392-1.745-.783-3.483-1.2-5.363.669.4 1.232.727 1.78 1.068a42.2 42.2 0 0 0 5.455 3.134 25.3 25.3 0 0 0 7.022 1.567c.228.028.456.05.684.078.876.121.869.121.9.983s.072 1.695.165 2.535z"></path><path class="c" d="M123.693 176.891c.043.392-.057.534-.448.477a41.665 41.665 0 0 1-5.911-1.018 19.623 19.623 0 0 1-4.729-2.243c-1.51-.941-2.991-1.909-4.543-2.764-.15-.085-.293-.156-.335-.356-.492-2.236-1-4.465-1.517-6.787a25.692 25.692 0 0 1 2.7 1.923 23.41 23.41 0 0 0 8.973 4.722c1.46.356 2.948.555 4.416.869.569.121.619.32.7.733.281 1.474.523 2.953.694 4.444zm-.285 12.349c.478.278.406.6.25.961-.193.449-.513.178-.777.072-2.008-.841-3.859-2-5.782-3.013-.819-.427-1.66-.812-2.486-1.218a4.22 4.22 0 0 0-3.14-.27c-.663.192-1.332.377-2.009.534a2.3 2.3 0 0 1-2.229-.627 9.121 9.121 0 0 1-1.88-2.649c2.8.833 5.619 1.032 8.347 1.681a25.855 25.855 0 0 1 5.327 2.186 66.042 66.042 0 0 1 4.379 2.343z"></path><path class="c" d="M121.949 167.854c.206.968.469 1.93.7 2.834a22.812 22.812 0 0 1-13.21-5.377c-1.04-.875-2.208-1.552-3.276-2.378a1.065 1.065 0 0 1-.442-.577 70.021 70.021 0 0 0-1.752-5.683 1.087 1.087 0 0 1-.007-.235 24.544 24.544 0 0 1 3.938 2.862c1.239 1.132 2.5 2.25 3.646 3.461a13.758 13.758 0 0 0 7.6 3.867c.62.128 1.247.235 1.874.356a1.041 1.041 0 0 1 .933.869z"></path><path class="c" d="M121.379 165.888a.556.556 0 0 1-.022.157 26.2 26.2 0 0 1-4.97-1.2 11.553 11.553 0 0 1-4.188-2.806c-1.232-1.211-2.478-2.429-3.789-3.568a19.524 19.524 0 0 0-4.963-3.34.657.657 0 0 1-.335-.3 3.833 3.833 0 0 0-1.011-1.1.5.5 0 0 1-.257-.356.407.407 0 0 0-.041-.185.412.412 0 0 0-.122-.146.4.4 0 0 0-.175-.074.4.4 0 0 0-.189.013c-.313.05-.434.285-.455.584a.936.936 0 0 0 .534.833 5.065 5.065 0 0 1 1.68 2.671c-.3-.135-.477-.214-.648-.306-1.851-.962-3.71-1.937-5.612-2.806l.057-.128a.72.72 0 0 0 .7-.086c1.624-.819 3.255-1.588 4.893-2.364a3.011 3.011 0 0 1 3.639.6 28.509 28.509 0 0 1 4.636 5.3 9.493 9.493 0 0 0 6.716 4.458c2.49.339 3.443 1.992 3.922 4.149z"></path><path class="b" d="M118.7 63.409c.321.192.285.491.114.762a15.169 15.169 0 0 1-3.369 4.073 2.144 2.144 0 0 1-.982.5.531.531 0 0 1-.57-.363.419.419 0 0 1 .017-.342.416.416 0 0 1 .268-.214 5.154 5.154 0 0 0 2.136-1.787A19.616 19.616 0 0 0 118 63.687c.167-.271.373-.47.7-.278zm-.006 5.968a4 4 0 0 1-1.389 1.987.465.465 0 0 1-.305.036.456.456 0 0 1-.26-.171.378.378 0 0 1-.087-.135.4.4 0 0 1-.026-.158.393.393 0 0 1 .038-.155.379.379 0 0 1 .1-.128 6.427 6.427 0 0 0 1.04-1.432.486.486 0 0 1 .246-.231.491.491 0 0 1 .338-.018.417.417 0 0 1 .313.406z"></path><path class="c" d="m115.56 84.645-.035.164c-.42-.1-.556.235-.648.57-.727 2.578-1.189 5.22-1.717 7.841a125.672 125.672 0 0 1-3.212 13.424 19.082 19.082 0 0 1-3.674 6.431 24.209 24.209 0 0 0-4.829 8.873 22 22 0 0 0-.591 7.62c.193 3.055.627 6.1.72 9.159a42.935 42.935 0 0 1-.5 6.68c-.178 1.431-.277 2.87-.406 4.308a1.309 1.309 0 0 0 .043.691c.335.612-.071.769-.506.976-1.032.484-2.043 1-3.069 1.481-.328.157-.627.335-.442.734a.529.529 0 0 0 .178.234l-.057.129c-.391-.185-.783-.356-1.175-.527a1.646 1.646 0 0 1-.683-.762c-2.436-3.882-5.014-7.678-7.229-11.7-1.111-2.03-2.336-3.988-3.418-6.032a.979.979 0 0 1-.128-1.018 4.861 4.861 0 0 0 .085-1.717 35.681 35.681 0 0 1 .392-3.9 5.1 5.1 0 0 1 1.253-2.756 6.691 6.691 0 0 0 1.731-3.832c.612-5.028 2.927-9.4 5.206-13.794.441-.855.876-1.717 1.374-2.543a20.726 20.726 0 0 0 2.543-8.866 28.1 28.1 0 0 1 .5-3.368 9.2 9.2 0 0 1 1.595-3.561 18.064 18.064 0 0 1 5.539-4.924 6.885 6.885 0 0 1 3.019-.883 28.535 28.535 0 0 1 8.076.854c.023.007.044.007.065.014z"></path><path class="b" d="M114.77 44.024a.448.448 0 0 1 .231.251.455.455 0 0 1-.01.34.441.441 0 0 1-.088.151.44.44 0 0 1-.31.143.423.423 0 0 1-.172-.031 26.538 26.538 0 0 0-4.43-.7 6.756 6.756 0 0 0-3.625.363c-.341.157-.662.313-.655.776a.378.378 0 0 1-.356.392.483.483 0 0 1-.52-.292 1.012 1.012 0 0 1 .378-1.275 4.932 4.932 0 0 1 2.9-.976 5.69 5.69 0 0 1 .691-.007 33.734 33.734 0 0 1 5.484.691 1.649 1.649 0 0 1 .482.174zm-3.02 8.61c.008 1.068-.633 1.46-1.438 1.047a4.933 4.933 0 0 1-2.258-2.735.981.981 0 0 1 1.46-1.225 4.013 4.013 0 0 1 2.236 2.913z"></path><path class="c" d="M108.482 178.629a.542.542 0 0 1 .044.221.523.523 0 0 1-.052.22 19.789 19.789 0 0 1-3.461-1.659 15.822 15.822 0 0 1-3.39-2.927c-.89-.94-.947-2.129-1.573-3.183a.63.63 0 0 1 .288.045.638.638 0 0 1 .239.168q2.787 2.008 5.583 4.017a4 4 0 0 0 .684.427.466.466 0 0 0 .177.064.5.5 0 0 0 .188-.012.481.481 0 0 0 .169-.085.469.469 0 0 0 .121-.145.445.445 0 0 0 .054-.171.431.431 0 0 0-.019-.178l.214-.05c.242 1.083.492 2.165.734 3.248z"></path><path class="f" d="m107.748 175.381-.214.05a.6.6 0 0 0-.242-.3c-.391-.27-.79-.541-1.189-.819-5.491-3.824-10.747-7.962-15.995-12.1a8.273 8.273 0 0 0-3.411-1.631 7.868 7.868 0 0 1-4.466-2.856A82.407 82.407 0 0 1 77 150.962c-.505-.748-.983-1.517-1.56-2.4a10.515 10.515 0 0 0 3.454.5c.214-.007.221.171.257.32a20.611 20.611 0 0 0 2.03 4.9 2.634 2.634 0 0 0 .32.477.449.449 0 0 0 .771-.144.453.453 0 0 0-.009-.312 2.443 2.443 0 0 0-.2-.412 22.21 22.21 0 0 1-1.909-4.451 1.086 1.086 0 0 1 .2-1.111 2.279 2.279 0 0 0-.085-2.977 10.554 10.554 0 0 0-2.535-1.994c-.271-.164-.577-.221-.755.107s.014.548.277.719a11.539 11.539 0 0 1 2.116 1.609 1.406 1.406 0 0 1 .491 1.339 1.033 1.033 0 0 1-.7.918 1.061 1.061 0 0 1-.4.051 7.107 7.107 0 0 1-3.988-.962 10.966 10.966 0 0 1-2.222-1.745 1.156 1.156 0 0 1-.31-.343 1.18 1.18 0 0 1-.128-.9 1.2 1.2 0 0 1 .2-.417 39.753 39.753 0 0 1 4.857-7.029c.257-.313.805-.669.306-1.1-.455-.4-.755.15-1 .449a41.188 41.188 0 0 0-4.615 6.495c-.078.149-.17.3-.292.5a10.051 10.051 0 0 1-1.808-2.691 1.866 1.866 0 0 1 .284-1.6 19.989 19.989 0 0 1 2.8-3.66 16.149 16.149 0 0 1 3.148-2.97c.256-.171.384-.406.206-.691s-.448-.263-.712-.121a6.092 6.092 0 0 0-1.317 1.026 33.926 33.926 0 0 0-4.5 5.191c-.228.321-.342.349-.627.079-1.652-1.546-1.716-2.151-.263-3.875a39.1 39.1 0 0 1 4.173-4.315c.306-.271.812-.577.42-1.026-.427-.491-.733.064-1.04.306a28.028 28.028 0 0 0-2.293 2.2c-.149.15-.263.328-.491.064-.15-.178-.392-.1-.605-.064a27.539 27.539 0 0 0-5.612 1.531 6.131 6.131 0 0 1-3.44.506 2.195 2.195 0 0 1-2.044-2.08.961.961 0 0 1 .7-1.111 35.886 35.886 0 0 1 6.2-2.036c2.564-.449 5.042-1.261 7.57-1.859a7.174 7.174 0 0 1 2.3-.15 3.162 3.162 0 0 1 2.422 1.4 10.55 10.55 0 0 1 .733 1.3 5.244 5.244 0 0 0 2.486 2.707 3.527 3.527 0 0 1 1.274 1.239 51.112 51.112 0 0 1 3.39 5.7c2.856 5.049 5.883 9.992 9.03 14.87a4.214 4.214 0 0 0 1.952 1.7c2.521 1.054 4.9 2.421 7.349 3.632a.873.873 0 0 1 .449.62c1.161 3.518 1.944 7.135 2.749 10.739.418 1.933.86 3.849 1.294 5.771z"></path><path class="c" d="M95.043 167.277c.313.235.328.406.135.741a77.728 77.728 0 0 1-14.784 18.416 45.774 45.774 0 0 0-5.982 6.659c-.235.335-.37.135-.52-.021-.783-.791-1.567-1.574-2.329-2.386-.911-.976-1.787-1.973-2.692-2.949-.327-.356-.32-.527.122-.826a16.91 16.91 0 0 0 5.4-6.074c1.588-2.842 2.464-5.975 3.632-8.995a16.576 16.576 0 0 0 .683-5.063 15 15 0 0 0-.256-3.967 6.316 6.316 0 0 0 3.041.6 8.247 8.247 0 0 1 4.65 1.353 38.2 38.2 0 0 1 3.3 2.528c.092.072.171.157.27.221.235.157.5.271.727.007s.121-.548-.136-.755c-.926-.748-1.844-1.517-2.806-2.229a9.276 9.276 0 0 0-4.557-1.972.479.479 0 0 1-.442-.392 14.129 14.129 0 0 1-.434-3.048c.228-.021.292.121.37.221a5.573 5.573 0 0 0 3.105 1.873c.335.092.662.206 1 .3a9.022 9.022 0 0 1 3.312 1.709c1.702 1.378 3.448 2.71 5.191 4.049z"></path><path class="b" d="M85.942 81.9c2.713 7.741 1.538 15.012-3.084 21.713a31.292 31.292 0 0 1-14.564 11.174 39.65 39.65 0 0 1-13.274 2.8 1.08 1.08 0 0 0-.755.356q-2.382 2.232-4.771 4.458c-.228.213-.463.406-.7.6a.583.583 0 0 1-.357.15.455.455 0 0 1-.227-.064c-.25-.143-.228-.392-.178-.62a3.077 3.077 0 0 1 .156-.434l1.581-4.1c.1-.249.228-.442-.228-.477a41.188 41.188 0 0 1-10.554-2.322 36.457 36.457 0 0 1-7.392-3.7c-5.477-3.575-9.678-8.254-11.779-14.528-2.763-8.24-1.161-15.789 4.08-22.59a32.157 32.157 0 0 1 15.447-10.64 42.645 42.645 0 0 1 14.367-2.183 38.46 38.46 0 0 1 21.7 6.972A27.447 27.447 0 0 1 85.942 81.9zm-4.252 21.7c4.95-6.865 6.132-14.307 3.006-22.262a26.58 26.58 0 0 0-9.686-11.975A37.59 37.59 0 0 0 54.593 62.5a39.349 39.349 0 0 0-15.5 2.286 31.078 31.078 0 0 0-14.938 10.765c-4.166 5.7-5.712 12.029-4.045 18.972 1.51 6.317 5.256 11.138 10.383 14.984.079.057.15.121.257.043a9.162 9.162 0 0 1 .577-2.692c.035-.093.1-.193.085-.278-.143-.741.377-1.075.869-1.417a10.915 10.915 0 0 1 3.383-1.724 10.057 10.057 0 0 0 3.76-2.079c.562-.47 1.132-.933 1.7-1.4a2.44 2.44 0 0 0 .925-1.075.893.893 0 0 1 .606-.584c.349-.086.278-.278.207-.513-.328-1.09-.656-2.179-.962-3.269a.649.649 0 0 0-.144-.276.656.656 0 0 0-.255-.18 4.536 4.536 0 0 1-2.243-2.086c-.164-.307-.328-.321-.641-.264a9.042 9.042 0 0 1-3.276.05 3.268 3.268 0 0 1-2.5-1.681 3.971 3.971 0 0 1 3.359-5.629 6.462 6.462 0 0 1 1.915.171 7.868 7.868 0 0 1 .178-5.2.975.975 0 0 0-.05-.619q-.619-1.987-1.224-3.974c-.072-.228-.114-.442-.463-.349a.414.414 0 0 1-.187.027.407.407 0 0 1-.179-.058.415.415 0 0 1-.135-.132.421.421 0 0 1-.062-.179c-.064-.327.135-.484.427-.584.413-.149.826-.32 1.232-.484.307-.121.627-.214.8.157.164.334-.064.555-.342.683-.242.107-.32.235-.242.492.356 1.1.691 2.193 1.04 3.29.185-.057.207-.207.278-.313 2.763-4.387 6.658-6.666 11.907-6.2a9.921 9.921 0 0 1 5.954 2.442 8.5 8.5 0 0 0 3.112 1.816 7.877 7.877 0 0 1 5.077 5.861 4.258 4.258 0 0 1-1.046 4.081 9.811 9.811 0 0 1-2.725 1.719.725.725 0 0 1-.28.079.714.714 0 0 1-.29-.037c-.334-.121-.356.05-.327.306a7.221 7.221 0 0 0 .477 1.539 6.7 6.7 0 0 1-1.232 6.979 13.925 13.925 0 0 1-3.881 2.962c-.129.071-.307.086-.335.271a26.8 26.8 0 0 0 7.185 3.525 12.855 12.855 0 0 1 2.842 1.261 3.786 3.786 0 0 1 1.93 2.677 14.112 14.112 0 0 1 .185 1.546c.086 1.275-.107 2.592.691 3.746a1.842 1.842 0 0 1 .214 1.125c-.029.413.078.513.477.328A30.349 30.349 0 0 0 81.69 103.6zm-14.2 10.476c.121-.043.249-.086.228-.278a3.63 3.63 0 0 0-.427-1.994 2.62 2.62 0 0 1-.421-1.481c-.021-.862-.071-1.731-.114-2.593a3.531 3.531 0 0 0-2.094-3.2c-1.538-.776-3.233-1.111-4.764-1.873-.107.242.007.42.05.6q.715 2.767 1.232 5.583a9.2 9.2 0 0 0 1.118 3.54 3.427 3.427 0 0 1 .449 1.481c.064.42.135.833.2 1.254.043.256.128.363.428.292a40.372 40.372 0 0 0 4.115-1.335zM64.371 82.78a6.248 6.248 0 0 0-1.318-4.152 7.78 7.78 0 0 0-4.4-2.7 2.561 2.561 0 0 1-1.738-1.147 2.4 2.4 0 0 0-.947-.833c-2.336-1.346-4.8-2.307-7.535-1.823a11.371 11.371 0 0 0-8.887 6.708 1.061 1.061 0 0 0-.1.413 1.074 1.074 0 0 0 .067.42c.484 1.546.976 3.084 1.425 4.637.114.384.263.384.569.27a3.516 3.516 0 0 1 3.333.214 2.157 2.157 0 0 0 2.243.157 14.565 14.565 0 0 0 8.86-8.162c.106-.256.292-.512.548-.377.328.185.755.221 1 .5a12.1 12.1 0 0 1 3.119 5 10.41 10.41 0 0 1 .057 4.479 9.678 9.678 0 0 0 2.607-1.46 2.839 2.839 0 0 0 1.1-2.143zM61.7 115.8c.228-.05.377-.121.327-.42a7.641 7.641 0 0 0-1.1-3.546 1.87 1.87 0 0 1-.3-.8q-.769-4.326-1.852-8.575c-.043-.149-.043-.32-.206-.4a28.292 28.292 0 0 1-2.685-1.446 30.875 30.875 0 0 1-.079 3.176c-.028.449-.277.912-.078 1.361.862 1.965.9 4.087 1.239 6.153a.914.914 0 0 1-.228.911 2.862 2.862 0 0 1-3.938.014c-.627-.513-.627-.513-1.253.05a1.255 1.255 0 0 1-.5.373 1.242 1.242 0 0 1-1.592-.608 2.664 2.664 0 0 1-.392-.9 8.763 8.763 0 0 1-.242-1.823 18.547 18.547 0 0 1 .313-3.6c-.37.477-.683.983-1.046 1.453a2.409 2.409 0 0 1-3.761.52 7.44 7.44 0 0 1-2.663-4.024 8.759 8.759 0 0 1-.249-2.713 35.308 35.308 0 0 1-2.963 2.307c-.256.164-.107.363-.05.563q.865 2.97 1.446 6.011a39.05 39.05 0 0 1 .577 4.173c.028.306.021.634.456.769a39.644 39.644 0 0 0 10.5 1.837 22.553 22.553 0 0 0-1.545 4.124c.363-.335.733-.656 1.082-1a22.2 22.2 0 0 0 2.35-2.351c.207-.284.328-.762.862-.747a26.949 26.949 0 0 0 2.827-.128 44.276 44.276 0 0 0 4.743-.714zm-2.115-21.12a5.5 5.5 0 0 0 .52-5.4 6 6 0 0 1-.335-3.39 6.573 6.573 0 0 0 .114-2.343.779.779 0 0 1-.479.123.771.771 0 0 1-.454-.195A1.093 1.093 0 0 0 57.8 83.4a.407.407 0 0 1-.336.064.417.417 0 0 1-.269-.213.5.5 0 0 1 .15-.67 1.451 1.451 0 0 1 1.04-.256 3.217 3.217 0 0 1 1.4.491c-.32-2.193-1.638-3.717-2.991-5.234a16.792 16.792 0 0 1-10.233 8.553.562.562 0 0 0 .007.092 5.453 5.453 0 0 1-.392 6.844c-.2.235-.093.321.086.449A10.8 10.8 0 0 0 49.387 95a.4.4 0 0 0 .219.017.405.405 0 0 0 .194-.1 2.421 2.421 0 0 1 3.062.149 1.09 1.09 0 0 1 .385 1.14 1.032 1.032 0 0 1-.328.506 1.018 1.018 0 0 1-.555.234 2.276 2.276 0 0 1-2.279-.641.624.624 0 0 0-.356-.249 10.447 10.447 0 0 1-3.9-1.681 1.161 1.161 0 0 0-1.367-.2 2.8 2.8 0 0 1-1.118.242c-.378.029-.442.114-.328.485.328 1.046.634 2.1.9 3.162a1 1 0 0 0 .719.79c1.794.648 3.6 1.268 5.334 2.065.89.406.876.435 1.31-.413.435-.869.435-.869-.548-.975a6.772 6.772 0 0 1-.342-.057 13.989 13.989 0 0 1-6.1-3.155c-.257-.214-.577-.449-.313-.812.277-.378.612-.171.9.057A23.394 23.394 0 0 0 47 97.08a10.365 10.365 0 0 0 6.388 1.6c1.816-.128 3.176-1.2 4.551-2.229a7.245 7.245 0 0 0 1.646-1.771zm-4.978 17.376a1.1 1.1 0 0 0 1.325-1.253c-.065-.42-.107-.84-.164-1.261a12.4 12.4 0 0 0-1.2-4.543 5.921 5.921 0 0 0-2.706-2.592c-.157-.071-.456-.235-.47.014-.043.57-.5.9-.662 1.389a15.673 15.673 0 0 0-.947 5.02 6.165 6.165 0 0 0 .256 2.222c.249.769.491.834 1.083.314.819-.713 1.3-.727 2.115-.015a2.856 2.856 0 0 0 1.37.705zm.221-8.46a17.165 17.165 0 0 0 .107-3.276.8.8 0 0 0-.116-.348.785.785 0 0 0-.262-.257 4.685 4.685 0 0 0-1.916.007.279.279 0 0 0-.057.149 4.785 4.785 0 0 1-.52 1.218c-.085.178-.128.3.107.4a7.2 7.2 0 0 1 2.657 2.111zm-2.6-7.677c.064-.242-.228-.328-.406-.406a1.231 1.231 0 0 0-.954-.071.115.115 0 0 0-.051.027.117.117 0 0 0-.031.048.117.117 0 0 0 .018.11 1.178 1.178 0 0 0 .926.442c.164-.036.441.049.498-.15zm-2.528 6.73c.349-.648.356-.662-.356-.962-2-.854-4.052-1.566-6.082-2.335-.327-.122-.42.021-.491.27a6.642 6.642 0 0 0-.4 1.98 6.9 6.9 0 0 0 1.638 4.508 3.963 3.963 0 0 0 1.545 1.182 1.181 1.181 0 0 0 1.339-.221 4.354 4.354 0 0 0 .741-.883 42.566 42.566 0 0 0 2.066-3.539zm-3.069-12.9a5.048 5.048 0 0 0-.6-2.577 3.318 3.318 0 0 0-5.854-.321 4.567 4.567 0 0 0 .755 5.747 3.16 3.16 0 0 0 4.507-.121 4.175 4.175 0 0 0 1.192-2.733zm-7.1-3.753c.741-.64.741-.64.492-1.438-.121-.4-.249-.8-.378-1.211-.234-.74-.462-1.481-.7-2.222-.545 1.719.101 3.257.585 4.866zm-.512 28.138c.434.164.477.021.441-.356q-.192-1.988-.577-3.939a59.613 59.613 0 0 0-1.338-5.5c-.057-.185-.015-.5-.413-.385a14.682 14.682 0 0 0-4.138 1.873.969.969 0 0 0-.342.377 8.8 8.8 0 0 0-.947 3.39c-.007.435-.064.755.32 1a37.7 37.7 0 0 0 6.993 3.535zM38.8 87.615a1.63 1.63 0 0 0-1.289-2.15c-2.414-.485-4.074.825-4.038 3.183a2.007 2.007 0 0 0 1.339 1.965 5.4 5.4 0 0 0 2.079.328 10.354 10.354 0 0 0 1.4-.121c.349-.029.456-.185.371-.527a5.027 5.027 0 0 1 .138-2.678z"></path><path class="d" d="M84.7 81.334c3.126 7.955 1.944 15.4-3.006 22.262a30.339 30.339 0 0 1-12.569 9.813c-.4.186-.506.086-.478-.327a1.833 1.833 0 0 0-.213-1.125c-.8-1.154-.606-2.471-.691-3.746a14.112 14.112 0 0 0-.185-1.546 3.786 3.786 0 0 0-1.93-2.677 12.855 12.855 0 0 0-2.842-1.261A26.8 26.8 0 0 1 55.6 99.2c.028-.185.206-.2.334-.271a13.915 13.915 0 0 0 3.882-2.962 6.7 6.7 0 0 0 1.232-6.98 7.2 7.2 0 0 1-.477-1.538c-.029-.256-.008-.427.327-.306a.725.725 0 0 0 .57-.043 9.765 9.765 0 0 0 2.727-1.716 4.256 4.256 0 0 0 1.047-4.081 7.877 7.877 0 0 0-5.077-5.861 8.5 8.5 0 0 1-3.112-1.816 9.921 9.921 0 0 0-5.953-2.44c-5.249-.471-9.144 1.808-11.907 6.195-.071.107-.093.257-.278.314-.349-1.1-.684-2.194-1.04-3.29-.078-.257 0-.385.242-.492.278-.128.506-.349.342-.683-.178-.371-.5-.278-.8-.157-.406.164-.819.335-1.232.484-.292.1-.491.256-.427.584a.421.421 0 0 0 .062.179.415.415 0 0 0 .135.132.4.4 0 0 0 .179.058.414.414 0 0 0 .187-.027c.349-.093.391.121.463.349q.607 1.988 1.224 3.974a.975.975 0 0 1 .05.619 7.868 7.868 0 0 0-.178 5.2 6.462 6.462 0 0 0-1.915-.171 3.971 3.971 0 0 0-3.355 5.633 3.268 3.268 0 0 0 2.5 1.681 9.042 9.042 0 0 0 3.276-.05c.313-.057.477-.043.641.264a4.536 4.536 0 0 0 2.231 2.085.657.657 0 0 1 .4.456c.306 1.09.634 2.179.961 3.269.071.235.143.427-.206.513a.894.894 0 0 0-.606.583 2.437 2.437 0 0 1-.925 1.076c-.57.463-1.14.926-1.7 1.4a10.057 10.057 0 0 1-3.76 2.079 10.915 10.915 0 0 0-3.383 1.724c-.492.341-1.012.676-.869 1.417a.621.621 0 0 1-.086.277 9.206 9.206 0 0 0-.576 2.693c-.107.078-.178.014-.257-.043-5.127-3.846-8.873-8.667-10.383-14.984-1.667-6.943-.121-13.275 4.045-18.972A31.078 31.078 0 0 1 39.089 64.79a39.349 39.349 0 0 1 15.5-2.286 37.6 37.6 0 0 1 20.421 6.858 26.588 26.588 0 0 1 9.69 11.972z"></path><path class="b" d="M82.929 13.358c1.311 4.993-.057 9.344-3.539 13.047a19.968 19.968 0 0 1-10.974 5.769 24.067 24.067 0 0 1-5 .5 24.479 24.479 0 0 1-13.887-4.209c-.306-.213-.456-.192-.691.093-1.1 1.367-2.2 2.727-3.339 4.066-.243.292-.029.413.085.584a11.916 11.916 0 0 1 1.887 4.558 13.378 13.378 0 0 1-1.871 9.37 21.678 21.678 0 0 1-7.129 7.207.673.673 0 0 0-.224.157.666.666 0 0 0-.1.769c.434 1.417.826 2.848 1.232 4.273a2.551 2.551 0 0 1 .092.335c.057.3.157.641-.185.826s-.577-.064-.79-.292c-1.1-1.218-2.215-2.422-3.3-3.647a.644.644 0 0 0-.172-.177.627.627 0 0 0-.227-.1.642.642 0 0 0-.247 0 .627.627 0 0 0-.229.092 29.738 29.738 0 0 1-13.453 2.55 21.217 21.217 0 0 1-11.782-3.753 12.508 12.508 0 0 1-5.327-8.1 13.256 13.256 0 0 1 1.923-9.357 22.748 22.748 0 0 1 8.781-8.176 29.916 29.916 0 0 1 12.078-3.675 24.608 24.608 0 0 1 13.075 2.151 15.23 15.23 0 0 1 2.571 1.545c.242.186.4.221.612-.028 1.111-1.261 2.215-2.521 3.34-3.767.271-.292.043-.435-.114-.613a14.817 14.817 0 0 1-3.176-5.656c-1.445-5.085-.164-9.536 3.362-13.353A19.526 19.526 0 0 1 57.1.54a24.513 24.513 0 0 1 18.815 3.518 15.867 15.867 0 0 1 7.014 9.3zm-3.347 11.374a12.121 12.121 0 0 0 2.671-10.063 13.924 13.924 0 0 0-4.437-7.862A22.257 22.257 0 0 0 63.039.974a22.539 22.539 0 0 0-10.718 2.144 17.145 17.145 0 0 0-6.182 4.757 12.332 12.332 0 0 0-2.912 8.382 13.406 13.406 0 0 0 3.966 8.943c.392.406.364.662.029 1.018-1.474 1.595-2.984 3.162-4.3 4.892-.156.2-.292.235-.512.036a11.67 11.67 0 0 0-1.973-1.4 23.256 23.256 0 0 0-15.1-2.585 28.474 28.474 0 0 0-12.577 4.763 20.66 20.66 0 0 0-6.288 6.517 12.339 12.339 0 0 0-1.745 8.866 11.864 11.864 0 0 0 5.982 8c4.843 2.878 10.127 3.348 15.59 2.6a28.963 28.963 0 0 0 8.432-2.542c.121-.058.32-.243.406-.086.156.306.455.442.662.691.662.812 1.389 1.581 2.186 2.478a2.491 2.491 0 0 0-.043-.448c-.3-.933-.484-1.9-.861-2.813-.306-.748-.25-.912.434-1.346a20.371 20.371 0 0 0 7.9-8.383 12.088 12.088 0 0 0 1.232-6.9 10.919 10.919 0 0 0-2.258-5.363c-.2-.263-.263-.42 0-.7a20.519 20.519 0 0 0 1.311-1.6 40.489 40.489 0 0 0 2.72-3.433c.192-.32.3-.491.428-.527s.3.071.619.314c.171.128.335.263.513.377a23.638 23.638 0 0 0 19.05 3.439 18.071 18.071 0 0 0 10.552-6.333z"></path><path class="d" d="M82.253 14.669a12.121 12.121 0 0 1-2.671 10.063 18.077 18.077 0 0 1-10.554 6.324 23.644 23.644 0 0 1-19.05-3.44c-.178-.114-.342-.249-.513-.377-.32-.243-.484-.357-.619-.314l-1.624-.712c.335-.356.363-.612-.029-1.018a13.406 13.406 0 0 1-3.966-8.938 12.332 12.332 0 0 1 2.912-8.382 17.145 17.145 0 0 1 6.182-4.757A22.551 22.551 0 0 1 63.039.974a22.257 22.257 0 0 1 14.777 5.833 13.924 13.924 0 0 1 4.437 7.862zm-8.517 8.3c.7-.271.819-.506.534-1.062q-3.75-7.424-7.514-14.848a.7.7 0 0 0-.164-.286.7.7 0 0 0-.6-.212.7.7 0 0 0-.307.121c-.734.349-1.481.655-2.2 1.018-.342.178-.5.107-.669-.214-.271-.484-.584-.954-.876-1.431-.434-.7-.563-.741-1.3-.406-1.126.517-2.24 1.037-3.362 1.551q-4.509 2.083-9.024 4.166c-.292.136-.633.235-.6.663a1.866 1.866 0 0 0 .363 1.125c1.289 1.78 2.55 3.582 3.825 5.37q2.691 3.792 5.383 7.591c.428.6.563.634 1.254.328.278-.128.562-.242.84-.385a.337.337 0 0 1 .291-.062.339.339 0 0 1 .229.19c.285.414.62.791.919 1.19a.735.735 0 0 0 .918.277c.178-.064.356-.142.535-.213z"></path><path class="c" d="M77.339 166.031a.68.68 0 0 1 .42.719 19.229 19.229 0 0 1-.434 3.988.725.725 0 0 1-.421-.27c-3.354-3.262-6.815-6.41-10.3-9.536a.809.809 0 0 1-.292-.933 15.452 15.452 0 0 0 .37-4.017c.292.071.378.285.513.428 2.464 2.521 4.672 5.291 7.314 7.627a13.722 13.722 0 0 0 2.83 1.994zm.199-2.778a6.116 6.116 0 0 1 .193 1.866 9.36 9.36 0 0 1-2.009-1.317 25.848 25.848 0 0 1-2.585-2.4c-1.937-2.087-3.852-4.195-5.8-6.274a3.056 3.056 0 0 1-.954-1.909 4.646 4.646 0 0 0-.157-.677c-.078-.306-.149-.626-.555-.619-.435.014-.4.377-.449.776-.591-.84-1.125-1.581-1.652-2.336a3.026 3.026 0 0 1 3.646 1.019c1.3 1.73 2.329 3.624 3.475 5.448.478.747.969 1.481 1.446 2.229a4.254 4.254 0 0 0 2.343 1.78c.491.157.976.349 1.46.527a2.379 2.379 0 0 1 1.6 1.887zm-.733 8.397a.343.343 0 0 1 .132.2.333.333 0 0 1-.04.239c-.512 1.432-1.032 2.863-1.531 4.295-.121.363-.27.277-.491.1q-5.79-4.658-11.573-9.322c-.178-.142-.37-.256-.149-.548a20.546 20.546 0 0 0 2.685-4.9.626.626 0 0 1 .1-.107c2.229 2.108 4.587 4.067 6.787 6.2 1.338 1.3 2.705 2.575 4.08 3.843zm-2.364 5.704a.566.566 0 0 1 .284.364.552.552 0 0 1 .009.236.563.563 0 0 1-.087.219 29.33 29.33 0 0 1-2.03 3.753c-.285.406-.434.492-.826.086a116.228 116.228 0 0 0-10.44-9.551 50.193 50.193 0 0 0-1.7-1.3c-.228-.164-.335-.271-.071-.521a29.871 29.871 0 0 0 2.606-2.777 1.79 1.79 0 0 1 .207-.192c.121.085.206.156.3.228q5.862 4.741 11.748 9.455z"></path><path class="b" d="M74.269 21.911c.285.556.164.791-.534 1.061q-5.757 2.233-11.529 4.466c-.179.071-.357.149-.535.213a.735.735 0 0 1-.918-.277c-.3-.4-.634-.776-.919-1.19a.339.339 0 0 0-.229-.19.354.354 0 0 0-.152 0 .342.342 0 0 0-.139.065c-.278.143-.562.257-.84.385-.691.306-.826.27-1.254-.328q-2.691-3.792-5.384-7.591c-1.274-1.788-2.535-3.59-3.824-5.37a1.866 1.866 0 0 1-.363-1.125c-.028-.428.313-.527.6-.663q4.514-2.085 9.029-4.167c1.117-.512 2.236-1.032 3.361-1.545.733-.335.862-.292 1.3.406.292.477.6.947.876 1.431.171.321.327.392.669.214.72-.363 1.467-.67 2.2-1.018a.7.7 0 0 1 .307-.121.7.7 0 0 1 .6.212.7.7 0 0 1 .164.286q3.754 7.422 7.514 14.846zM73.237 22c-.064-.121-.128-.242-.185-.363l-2.585-5.1c-1.425-2.82-2.856-5.626-4.266-8.454-.2-.391-.371-.455-.741-.249a9.454 9.454 0 0 1-1.36.627c-.47.171-.491.349-.235.769 2.2 3.554 4.373 7.122 6.552 10.689.5.819.448 1-.421 1.382-2.948 1.317-5.9 2.649-8.866 3.938-.505.221-.527.37-.206.819a.908.908 0 0 0 .959.5.925.925 0 0 0 .358-.14c1.488-.641 3.013-1.19 4.515-1.774 2.016-.783 4.024-1.56 6.032-2.35.157-.055.392-.048.449-.294zm-4.017-1.4c.3-.128.364-.242.171-.534-.477-.748-.933-1.51-1.389-2.265q-3.31-5.394-6.608-10.789c-.107-.164-.15-.4-.392-.456-.1.043-.185.079-.27.121q-5.912 2.715-11.808 5.428c-.3.135-.3.249-.121.5q4.508 6.324 8.994 12.669c.157.221.285.306.563.178q5.417-2.437 10.86-4.852z"></path><path class="d" d="M73.052 21.634c.057.121.121.242.185.363-.057.249-.292.242-.449.3-2.008.79-4.016 1.567-6.032 2.35-1.5.584-3.027 1.133-4.515 1.774a.925.925 0 0 1-.358.14.9.9 0 0 1-.959-.5c-.321-.449-.3-.6.206-.819 2.963-1.294 5.918-2.626 8.87-3.942.869-.385.926-.563.421-1.382-2.179-3.567-4.351-7.135-6.552-10.689-.256-.42-.235-.6.235-.769a9.454 9.454 0 0 0 1.36-.627c.37-.206.541-.142.741.249 1.41 2.828 2.841 5.634 4.266 8.454.857 1.701 1.719 3.396 2.581 5.098z"></path><path class="c" d="M71.321 182.881c.242.249.271.4.022.655-.577.6-1.14 1.2-1.738 1.78-.356.342-.6.342-.947-.014A75.085 75.085 0 0 0 62.8 179.9a41.964 41.964 0 0 0-6.574-4.594c-1.346-.755-1.331-.769-.135-1.695.734-.562 1.439-1.161 2.158-1.737.114-.093.207-.235.392-.25.121.079.242.164.37.257a102.213 102.213 0 0 1 9.237 7.955q1.566 1.493 3.073 3.045z"></path><path class="d" d="M69.391 20.067c.193.292.128.406-.171.534q-5.437 2.415-10.86 4.85c-.278.128-.406.043-.563-.178Q53.311 18.934 48.8 12.6c-.178-.25-.178-.364.121-.5q5.907-2.7 11.808-5.427c.085-.042.17-.078.27-.121.242.057.285.292.392.456Q64.7 12.409 68 17.8c.458.757.914 1.519 1.391 2.267zm-4-.869c.249-.092.449-.249.392-.555-.05-.278-.249-.371-.513-.363a1.823 1.823 0 0 0-.719.2q-3.333 1.3-6.659 2.607c-.342.135-.6.341-.47.733.157.413.506.335.826.206 1.432-.576 2.856-1.167 4.287-1.73.952-.378 1.907-.734 2.865-1.096zm-2.25-2.592a.4.4 0 0 0 .263-.463.446.446 0 0 0-.427-.4 1.083 1.083 0 0 0-.563.064c-2.129.834-4.187 1.823-6.352 2.571a.467.467 0 0 0-.169.086.482.482 0 0 0-.181.324.46.46 0 0 0 .015.188c.057.257.249.371.563.364.028-.007.106-.015.178-.036 2.248-.846 4.406-1.904 6.678-2.698zm-1.121-2.877a.458.458 0 0 0 .165-.093.464.464 0 0 0 .114-.15.47.47 0 0 0 .045-.183.461.461 0 0 0-.032-.187.422.422 0 0 0-.073-.158.432.432 0 0 0-.129-.119.455.455 0 0 0-.164-.059.431.431 0 0 0-.175.009 3.194 3.194 0 0 0-.7.242c-2.243.933-4.472 1.88-6.715 2.806-.257.107-.385.256-.342.52.042.3.263.406.569.427a3.138 3.138 0 0 0 .356-.114c2.374-.954 4.681-2.051 7.081-2.941zm-1.737-2.535c.377-.178.94-.264.662-.841-.249-.52-.7-.2-1.054-.035a848.352 848.352 0 0 0-6.691 3.133 1.759 1.759 0 0 0-.435.278.444.444 0 0 0-.085.534c.071.185.235.242.52.228a9.15 9.15 0 0 0 .441-.185q3.32-1.56 6.642-3.112z"></path><path class="f" d="M68.736 138.613c.107.092.221.178.157.341a2.911 2.911 0 0 0 .534 2.821 3.429 3.429 0 0 1-2.92-1.41c-.9-1.325-.057-2.486.42-3.818a9.01 9.01 0 0 0 1.809 2.066z"></path><path class="c" d="M67.889 185.857c.349.356.306.463-.107.641-1.061.477-1.318.463-2.158-.349-1.531-1.467-2.87-3.126-4.48-4.515-1.972-1.688-3.924-3.447-6.4-4.387a3.363 3.363 0 0 1-2.2-2.891c-.065-.377-.114-.762-.164-1.14l.79-.135a4.739 4.739 0 0 0 .6 1.8c.207.335.456.185.663.313a67.849 67.849 0 0 1 13.456 10.663z"></path><path class="d" d="M67.718 113.794c.021.192-.107.235-.228.278a40.372 40.372 0 0 1-4.116 1.332c-.3.071-.385-.036-.428-.292-.064-.421-.135-.834-.2-1.254a3.427 3.427 0 0 0-.449-1.481 9.2 9.2 0 0 1-1.118-3.54q-.513-2.82-1.232-5.583c-.043-.178-.157-.356-.05-.6 1.531.762 3.226 1.1 4.764 1.873a3.531 3.531 0 0 1 2.094 3.2c.043.862.093 1.731.114 2.593a2.62 2.62 0 0 0 .421 1.481 3.63 3.63 0 0 1 .428 1.993z"></path><path class="b" d="M65.788 18.643c.057.306-.143.463-.392.555-.954.363-1.909.719-2.856 1.1-1.431.563-2.855 1.154-4.287 1.73-.32.129-.669.207-.826-.206-.135-.392.128-.6.47-.734q3.333-1.3 6.659-2.606a1.841 1.841 0 0 1 .719-.2c.264-.01.463.083.513.361z"></path><path class="f" d="M65.724 155.548a15.9 15.9 0 0 1-3.881 11.188.665.665 0 0 1-.1.071 1.87 1.87 0 0 0-.307-.477c-3.026-2.9-5.718-6.1-8.545-9.187A97.213 97.213 0 0 0 50.875 155a6.047 6.047 0 0 0-2.143-1.453 2.555 2.555 0 0 1-1.6-1.781c-.106-.384-.22-.748-.719-.762a.165.165 0 0 1-.107-.05 7.762 7.762 0 0 0-3.881-1.652 2.467 2.467 0 0 1-1.887-1.823 9.336 9.336 0 0 0-.385-1.09l.086-.648a.373.373 0 0 0 .156 0 .439.439 0 0 0 .171-.038.434.434 0 0 0 .232-.251.446.446 0 0 0 .025-.173 10.568 10.568 0 0 1 .491-3.056 10.367 10.367 0 0 1 3.9-6.366 40.964 40.964 0 0 0 3.311-2.977c.748-.719 1.5-1.446 2.265-2.151a7.932 7.932 0 0 1 2.065-1.46 1.932 1.932 0 0 1 2.186.6 1.466 1.466 0 0 1 .143 1.9 11.568 11.568 0 0 1-2.051 2.706c-1.681 1.645-3.326 3.326-5.049 4.921a5.771 5.771 0 0 0-1.9 3.775c-.092.847-.235 1.68-.356 2.521 0 .021-.007.035-.007.057.036.42-.1.968.392 1.167.477.193.7-.291.947-.6q3.346-4.134 6.68-8.275a7.443 7.443 0 0 1 2.428-2.108 2.546 2.546 0 0 1 .99-.306.726.726 0 0 1 .8.708.721.721 0 0 1-.1.382c-.078.142-.164.306-.078.427.434.662.071 1.253-.185 1.794a20.394 20.394 0 0 1-4.38 6.4 2.66 2.66 0 0 0-.52 3.6c.149.264.349.513.684.371.384-.164.327-.485.192-.791a3.9 3.9 0 0 1-.37-1.446.5.5 0 0 1 .028-.286.508.508 0 0 1 .178-.226c.185-.107.3.121.4.235 1.125 1.274 2.6 1.168 4.074 1.054a3.133 3.133 0 0 0 .74-.1c1-.335 1.61.114 2.236.869a68.7 68.7 0 0 1 4.58 6.317 1.184 1.184 0 0 1 .187.613z"></path><path class="h" d="M65.567 145.115c.363.327.3.519-.164.641a31.542 31.542 0 0 1-3.361.548c-1.631.256-3.262.541-4.914.669a3.023 3.023 0 0 1-2.621-.911c-.206-.221-.221-.349-.007-.556a22.505 22.505 0 0 0 4.494-7.1 98.858 98.858 0 0 0 4.679 4.935c.612.613 1.26 1.19 1.894 1.774z"></path><path class="a" d="M63.053 78.628a6.242 6.242 0 0 1 1.317 4.152 2.834 2.834 0 0 1-1.1 2.143 9.678 9.678 0 0 1-2.607 1.46A10.41 10.41 0 0 0 60.6 81.9a12.115 12.115 0 0 0-3.119-5c-.242-.277-.669-.313-1-.5-.256-.135-.442.121-.548.377a14.565 14.565 0 0 1-8.86 8.162 2.157 2.157 0 0 1-2.243-.157 3.516 3.516 0 0 0-3.333-.214c-.306.114-.456.114-.569-.27-.449-1.553-.941-3.091-1.425-4.637a1.074 1.074 0 0 1-.067-.42 1.057 1.057 0 0 1 .1-.413 11.365 11.365 0 0 1 8.887-6.708c2.735-.484 5.2.477 7.535 1.823a2.4 2.4 0 0 1 .947.833 2.561 2.561 0 0 0 1.738 1.147 7.78 7.78 0 0 1 4.41 2.705z"></path><path class="b" d="M63.409 16.143a.4.4 0 0 1-.263.463c-2.272.79-4.43 1.851-6.673 2.7a1.7 1.7 0 0 1-.178.035c-.314.008-.506-.106-.563-.363a.46.46 0 0 1-.015-.188.484.484 0 0 1 .35-.41c2.165-.748 4.223-1.737 6.352-2.571a1.083 1.083 0 0 1 .563-.064.444.444 0 0 1 .427.4zm-1.097-3.027a.459.459 0 0 1 .032.186.47.47 0 0 1-.045.184.468.468 0 0 1-.278.243c-2.4.89-4.708 1.987-7.086 2.941a3.272 3.272 0 0 1-.356.114c-.307-.021-.528-.128-.57-.427-.043-.264.085-.413.342-.52 2.243-.926 4.472-1.873 6.715-2.806a3.194 3.194 0 0 1 .7-.242.431.431 0 0 1 .175-.009.455.455 0 0 1 .164.059.432.432 0 0 1 .129.119.422.422 0 0 1 .078.158z"></path><path class="i" d="M62.027 115.382c.05.3-.1.37-.327.42a44.273 44.273 0 0 1-4.736.712 26.681 26.681 0 0 1-2.827.129c-.534-.015-.655.463-.862.747a22.2 22.2 0 0 1-2.35 2.351c-.349.348-.719.669-1.082 1a22.553 22.553 0 0 1 1.545-4.124 39.644 39.644 0 0 1-10.5-1.837c-.435-.135-.428-.463-.456-.769a39.05 39.05 0 0 0-.577-4.173q-.578-3.045-1.446-6.011c-.057-.2-.206-.4.05-.563a35.308 35.308 0 0 0 2.963-2.307 8.759 8.759 0 0 0 .249 2.713 7.44 7.44 0 0 0 2.659 4.03 2.409 2.409 0 0 0 3.761-.52c.363-.47.676-.976 1.046-1.453a18.547 18.547 0 0 0-.313 3.6 8.763 8.763 0 0 0 .242 1.823 2.664 2.664 0 0 0 .392.9 1.242 1.242 0 0 0 1.592.608 1.255 1.255 0 0 0 .5-.373c.626-.563.626-.563 1.253-.05a2.862 2.862 0 0 0 3.938-.014.914.914 0 0 0 .228-.911c-.335-2.066-.377-4.188-1.239-6.153-.2-.449.05-.912.078-1.361a30.875 30.875 0 0 0 .079-3.176 28.292 28.292 0 0 0 2.685 1.446c.163.078.163.249.206.4q1.078 4.252 1.852 8.575a1.87 1.87 0 0 0 .3.8 7.641 7.641 0 0 1 1.097 3.541z"></path><path class="b" d="M60.945 10.353c.278.577-.285.663-.662.841q-3.323 1.548-6.645 3.112a9.15 9.15 0 0 1-.441.185c-.285.014-.449-.043-.52-.228a.443.443 0 0 1 .086-.534 1.735 1.735 0 0 1 .434-.278c2.229-1.047 4.458-2.1 6.694-3.133.349-.164.809-.485 1.054.035z"></path><path class="c" d="M60.205 166.508c.327.335.619.74 1.239.74a37.631 37.631 0 0 1-7.122 6.481 3.91 3.91 0 0 1-.264-1.752c.015-.342-.049-.655-.448-.669s-.506.292-.506.634a8.67 8.67 0 0 0 .064 1.139l-.79.135a25.357 25.357 0 0 1-.107-5.782c.264-2.529.506-5.057.762-7.585.028-.263.071-.527.114-.8.278.007.363.227.5.377 2.171 2.374 4.286 4.803 6.558 7.082z"></path><path d="M60.105 89.282a5.5 5.5 0 0 1-.52 5.4 7.245 7.245 0 0 1-1.645 1.773c-1.375 1.025-2.735 2.1-4.551 2.229A10.365 10.365 0 0 1 47 97.08a23.394 23.394 0 0 1-2.115-1.517c-.285-.228-.62-.435-.9-.057-.264.363.056.6.313.812a13.989 13.989 0 0 0 6.1 3.155c.114.021.228.042.342.057.983.106.983.106.548.975-.434.848-.42.819-1.31.413-1.738-.8-3.54-1.417-5.334-2.065a1 1 0 0 1-.719-.79 66.245 66.245 0 0 0-.9-3.162c-.114-.371-.05-.456.328-.485a2.8 2.8 0 0 0 1.118-.242 1.161 1.161 0 0 1 1.367.2 10.447 10.447 0 0 0 3.9 1.681.624.624 0 0 1 .356.249 2.276 2.276 0 0 0 2.279.641 1.018 1.018 0 0 0 .555-.234 1.032 1.032 0 0 0 .328-.506 1.09 1.09 0 0 0-.385-1.14 2.421 2.421 0 0 0-3.062-.149.405.405 0 0 1-.194.1.4.4 0 0 1-.228-.016 10.8 10.8 0 0 1-3.119-1.481c-.179-.128-.285-.214-.086-.449a5.453 5.453 0 0 0 .392-6.844.562.562 0 0 1-.007-.092A16.792 16.792 0 0 0 56.8 77.581c1.353 1.517 2.671 3.041 2.991 5.234a3.217 3.217 0 0 0-1.4-.491 1.451 1.451 0 0 0-1.04.256.5.5 0 0 0-.15.67.411.411 0 0 0 .605.149 1.093 1.093 0 0 1 1.147.078.771.771 0 0 0 .454.195.779.779 0 0 0 .479-.123 6.573 6.573 0 0 1-.114 2.343 6 6 0 0 0 .333 3.39zm-1.332-1.012a2.534 2.534 0 0 0 .142-1.638.64.64 0 0 0-.633-.555.654.654 0 0 0-.755.477 2.469 2.469 0 0 0-.129 1.054 3.043 3.043 0 0 0 0 .427c.05.356.164.691.585.762s.633-.197.79-.527zm-1.46 5.541a.693.693 0 0 0-.148-.549.7.7 0 0 0-.226-.182.707.707 0 0 0-.281-.074c-.4-.05-.8-.064-1.182-.092h-.719c-.684-.007-.869.163-.891.833a3.041 3.041 0 0 0 1.734 2.485.593.593 0 0 0 .691-.142 4.137 4.137 0 0 0 1.022-2.279zm-1.09-2.336c.371 0 .848-.584.834-1a.427.427 0 0 0-.025-.187.421.421 0 0 0-.1-.157.411.411 0 0 0-.162-.1.426.426 0 0 0-.188-.016c-.27.007-.8.713-.79 1.04a.413.413 0 0 0 .033.163.424.424 0 0 0 .1.137.4.4 0 0 0 .141.088.417.417 0 0 0 .157.032zm-4.742-2.77a2.825 2.825 0 0 0 .149-2.6.585.585 0 0 0-.524-.355.587.587 0 0 0-.318.088.58.58 0 0 0-.219.246 2.133 2.133 0 0 0-.363 1.567 1.836 1.836 0 0 0 .185.975.617.617 0 0 0 .521.365.624.624 0 0 0 .569-.286z" style="fill:#d9ad9f"></path><path class="b" d="M58.915 86.632a2.534 2.534 0 0 1-.142 1.638c-.157.328-.37.606-.79.527s-.535-.406-.585-.762a3.043 3.043 0 0 1 0-.427 2.469 2.469 0 0 1 .129-1.054.654.654 0 0 1 .754-.477.64.64 0 0 1 .634.555zm-2.257 6.374a.707.707 0 0 1 .281.074.7.7 0 0 1 .359.441.708.708 0 0 1 .015.29 4.137 4.137 0 0 1-1.025 2.279.593.593 0 0 1-.691.142 3.041 3.041 0 0 1-1.731-2.485c.022-.67.207-.84.891-.833h.719c.377.028.783.042 1.182.092zm-.342 1.118a.9.9 0 0 0-.035-.178 3.782 3.782 0 0 0-1.354-.042c-.106.391.164.648.385.9.121.142.278.5.5.278a3.573 3.573 0 0 0 .504-.958zm.741-3.646c.014.413-.463 1-.834 1a.417.417 0 0 1-.164-.025.4.4 0 0 1-.141-.088.424.424 0 0 1-.1-.137.413.413 0 0 1-.033-.163c-.014-.328.52-1.033.79-1.04a.426.426 0 0 1 .188.016.411.411 0 0 1 .162.1.421.421 0 0 1 .1.157.427.427 0 0 1 .032.18z"></path><path class="d" d="M55.931 110.8a1.1 1.1 0 0 1-1.324 1.253 2.856 2.856 0 0 1-1.367-.7c-.812-.712-1.3-.7-2.116.015-.591.519-.833.455-1.082-.314a6.165 6.165 0 0 1-.256-2.222 15.673 15.673 0 0 1 .947-5.02c.164-.492.619-.819.662-1.389.014-.249.313-.085.47-.014A5.921 5.921 0 0 1 54.571 105a12.4 12.4 0 0 1 1.2 4.543c.054.42.096.84.16 1.257zm-2.756-1.545a.438.438 0 0 0 .163-.047.412.412 0 0 0 .132-.106.424.424 0 0 0 .081-.149.439.439 0 0 0 .016-.169c-.206-1.4-.313-2.805-.655-4.173-.085-.342-.207-.662-.634-.576-.456.092-.377.469-.3.79a23.6 23.6 0 0 1 .456 2.72c.057.456.121.919.22 1.368a.45.45 0 0 0 .064.161.433.433 0 0 0 .123.122.421.421 0 0 0 .16.064.438.438 0 0 0 .174-.002zm-1.431-1.966c.021-.313-.121-.548-.449-.555s-.47.227-.5.526c-.05.5-.093 1-.136 1.5h.029a4.626 4.626 0 0 0 .007.634.446.446 0 0 0 .045.168.438.438 0 0 0 .107.138.534.534 0 0 0 .5.077.434.434 0 0 0 .145-.095.43.43 0 0 0 .125-.317q.074-1.033.127-2.073z"></path><path class="h" d="M55.9 134.981a.73.73 0 0 1-.171.157c-1.723.918-2.778 2.521-3.988 3.952a54.35 54.35 0 0 0-1.866 2.357c-.214.285-.349.292-.612.043-.969-.933-.99-.933-.015-1.873 1.845-1.773 3.7-3.532 5.441-5.405.192-.207.314-.228.492-.015.219.264.465.513.719.784z"></path><path class="d" d="M54.935 100.32a17.165 17.165 0 0 1-.107 3.276 7.2 7.2 0 0 0-2.657-2.108c-.235-.1-.192-.221-.107-.4a4.785 4.785 0 0 0 .52-1.218.279.279 0 0 1 .057-.149 4.685 4.685 0 0 1 1.916-.007.785.785 0 0 1 .262.257.794.794 0 0 1 .116.349z"></path><path class="b" d="M53.567 108.788a.463.463 0 0 1-.721.4.457.457 0 0 1-.19-.271 14.7 14.7 0 0 1-.221-1.368 23.6 23.6 0 0 0-.456-2.72c-.078-.32-.157-.7.3-.79.427-.086.549.234.634.576.341 1.367.448 2.77.654 4.173zm-2.267-2.051c.328.007.47.242.449.555q-.054 1.037-.128 2.072a.43.43 0 0 1-.125.317.434.434 0 0 1-.145.095.6.6 0 0 1-.345.009.434.434 0 0 1-.152-.086.438.438 0 0 1-.107-.138.446.446 0 0 1-.045-.168 4.626 4.626 0 0 1-.007-.634h-.028c.042-.5.085-1 .135-1.5.023-.295.173-.53.498-.522zm.33-20.632a2.821 2.821 0 0 1-.15 2.6.621.621 0 0 1-.568.286.617.617 0 0 1-.521-.365 1.836 1.836 0 0 1-.185-.975 2.133 2.133 0 0 1 .363-1.567.583.583 0 0 1 .537-.334.58.58 0 0 1 .524.355z"></path><path class="h" d="M50.726 129.1c.213.164.171.271-.015.435-2.243 1.944-4.258 4.123-6.566 6-.114.093-.228.192-.356.292a6.184 6.184 0 0 1-.94-.684c-.171-.163.114-.277.228-.37 1.617-1.282 3.162-2.635 4.707-4a18.3 18.3 0 0 0 2-1.994c.249-.3.406-.264.612-.007a2.357 2.357 0 0 0 .33.328z"></path><path class="d" d="M49.344 101.687c.712.3.7.314.356.962a43.002 43.002 0 0 1-2.065 3.539 4.381 4.381 0 0 1-.741.883 1.181 1.181 0 0 1-1.339.221 3.963 3.963 0 0 1-1.545-1.182 6.9 6.9 0 0 1-1.638-4.508 6.636 6.636 0 0 1 .4-1.98c.071-.249.164-.392.491-.271 2.029.769 4.08 1.482 6.081 2.336z"></path><path class="f" d="M49.1 126.058c.626 1.281.612 1.474-.385 2.485a72.529 72.529 0 0 1-6.4 5.6c-3.091 2.442-3 3.062-3.048 6.85a6.909 6.909 0 0 0 .071.748c.029.328.157.591.513.57a.426.426 0 0 0 .262-.083.434.434 0 0 0 .158-.223l.1.021c-.214.84-.356 1.695-.52 2.55a2.523 2.523 0 0 0-.021.8.417.417 0 0 0 .413.363l-.086.649c-.171-.364-.477-.535-.84-.25a.274.274 0 0 1-.185.1.279.279 0 0 1-.2-.062c-.691-.435-1.388-.833-2.072-1.275a3.22 3.22 0 0 1-1.346-2.955 53.126 53.126 0 0 1 .278-5.541c.064-.612.149-1.225.242-1.837a1.992 1.992 0 0 1 .683-1.175 31.882 31.882 0 0 1 2.956-2.5 61.509 61.509 0 0 0 5.241-4.358 6.87 6.87 0 0 1 2.094-1.425 1.4 1.4 0 0 1 1.951.691c.05.086.093.171.141.257z"></path><path class="d" d="m47.222 26.213 1.624.712c-.129.036-.236.206-.428.527a40.649 40.649 0 0 1-2.72 3.433q-.615.832-1.311 1.6c-.263.285-.2.441 0 .7a10.92 10.92 0 0 1 2.258 5.362 12.09 12.09 0 0 1-1.232 6.9 20.363 20.363 0 0 1-7.9 8.382c-.684.435-.74.6-.434 1.346.377.912.562 1.881.861 2.813a2.5 2.5 0 0 1 .043.449c-.8-.9-1.524-1.666-2.186-2.478-.207-.25-.506-.385-.662-.691-.086-.157-.285.028-.406.085A28.934 28.934 0 0 1 26.3 57.9c-5.463.748-10.747.277-15.59-2.6a11.864 11.864 0 0 1-5.982-8 12.339 12.339 0 0 1 1.745-8.866 20.649 20.649 0 0 1 6.288-6.517 28.474 28.474 0 0 1 12.577-4.771 23.256 23.256 0 0 1 15.1 2.585 11.67 11.67 0 0 1 1.973 1.4c.22.2.356.164.512-.036 1.315-1.72 2.825-3.287 4.299-4.882zM38.74 40.869c.356 0 .7-.071.684-.506-.008-.4-.335-.456-.67-.448h-2.535V39.9c-.826 0-1.652.006-2.478 0-.349-.008-.7.035-.7.469s.327.506.69.506q2.496-.009 5.009-.006zm-2.806-4.836a.463.463 0 0 0 .153-.11.47.47 0 0 0 .1-.162.489.489 0 0 0 .027-.186.483.483 0 0 0-.049-.183.459.459 0 0 0-.106-.172.469.469 0 0 0-.17-.111.454.454 0 0 0-.2-.027.47.47 0 0 0-.193.061 4.015 4.015 0 0 0-.5.292c-1 .627-1.987 1.254-2.984 1.88-.406.257-.819.506-1.225.762a.5.5 0 0 0-.228.6c.05.213.214.306.478.32a1.694 1.694 0 0 0 .327-.135q2.284-1.411 4.57-2.829zM33.406 50.4a3.276 3.276 0 0 0-.192-3.931 10.3 10.3 0 0 0-4.114-2.994.734.734 0 0 0-.562-.028 3.078 3.078 0 0 0-1.7 2.186c-.029.663-.2.791-.841.606a1.786 1.786 0 0 1-.69-.4 23.364 23.364 0 0 1-3.931-4.3c-.278-.4-.292-.526.17-.761 1.938-.99 2.287-2.066 1.282-4a10.774 10.774 0 0 0-3.874-4.2 1.212 1.212 0 0 0-1.531.029 17.244 17.244 0 0 0-2.841 2.7A2.835 2.835 0 0 0 13.964 38a19.242 19.242 0 0 0 3.112 6.851c3.07 4.251 7.143 6.708 12.413 6.865.8-.007 1.517-.157 2.243-.228a2.155 2.155 0 0 0 1.674-1.088zm-.6-18.922a.5.5 0 0 0 .119-.381.488.488 0 0 0-.063-.193.5.5 0 0 0-.135-.153.463.463 0 0 0-.179-.092.47.47 0 0 0-.2-.009.457.457 0 0 0-.187.076.469.469 0 0 0-.138.146 4.109 4.109 0 0 0-.327.47c-.734 1.154-1.46 2.315-2.194 3.461-.4.634-.819 1.254-1.217 1.895-.257.42-.1.8.313.812.32 0 .463-.242.612-.463 1.24-1.833 2.309-3.769 3.598-5.571z"></path><path class="f" d="M47.685 141.326c1.417 1.1 1.417 1.1.356 2.386-.342.406-.684.812-1.076 1.2a11.707 11.707 0 0 1 .72-3.586z"></path><path class="i" d="M46.033 87.167a5.048 5.048 0 0 1 .6 2.577 4.175 4.175 0 0 1-1.19 2.728 3.159 3.159 0 0 1-4.507.121 4.568 4.568 0 0 1-.755-5.747 3.318 3.318 0 0 1 5.852.321z"></path><path class="h" d="M45.983 124.135c.178.163.242.256-.022.413a41.2 41.2 0 0 0-4.088 3.39 1.555 1.555 0 0 1-.6.4c.313-.69.6-1.31.883-1.93a5.851 5.851 0 0 0 .577-3.7 2.68 2.68 0 0 0-4.237-1.652 4.831 4.831 0 0 0-1.346 1.567 52.241 52.241 0 0 0-1.966 3.8c-.114.242-.185.391-.477.135-2.193-1.937-4.529-3.718-6.659-5.733-.334-.32-.662-.648-1-.969-.384-.377-.313-.7.1-1a6.058 6.058 0 0 1 2.578-.968c2.329-.406 4.665-.805 7.022-1.04a3.577 3.577 0 0 1 2.8.969c1.474 1.275 2.791 2.713 4.166 4.094q1.13 1.116 2.269 2.224z"></path><path class="f" d="M42.151 135.835c.933.613.955.62.271 1.46a11.865 11.865 0 0 0-2.037 4.679c-.007.014-.007.036-.014.05l-.1-.021a.684.684 0 0 0 .014-.321 14.289 14.289 0 0 1 .008-3.169 3.683 3.683 0 0 1 1.46-2.656.266.266 0 0 1 .087-.069.283.283 0 0 1 .107-.028.273.273 0 0 1 .11.017.285.285 0 0 1 .094.058zm-.384-13.053a4.381 4.381 0 0 1-.356 2.926c-.549 1.268-1.2 2.5-1.674 3.8a1.087 1.087 0 0 1-.427.449c-1.026.755-1.959 1.616-2.941 2.429a3.9 3.9 0 0 0-1.418 2.855c-.028.3-.085.6-.135.905-.029 0-.05-.008-.078-.008-.071-1.459-.15-2.919-.221-4.386a5.528 5.528 0 0 1 .406-2.251 43.6 43.6 0 0 1 3.176-6.6 3.261 3.261 0 0 1 .954-1.069 1.718 1.718 0 0 1 2.714.948z"></path><path class="d" d="M39.459 113.773c.036.377-.007.52-.441.356a37.7 37.7 0 0 1-6.994-3.54c-.384-.242-.327-.562-.32-1a8.8 8.8 0 0 1 .947-3.39.963.963 0 0 1 .342-.377 14.682 14.682 0 0 1 4.138-1.873c.4-.114.356.2.413.384a60.525 60.525 0 0 1 1.338 5.5q.386 1.957.577 3.94z"></path><path class="b" d="M39.424 40.363c.014.435-.328.506-.684.506q-2.511 0-5.014.007c-.363 0-.7-.085-.691-.5 0-.435.357-.478.706-.47.826.007 1.652 0 2.478 0v.014h2.535c.335-.012.662.045.67.443z"></path><path class="a" d="M37.508 85.465a1.631 1.631 0 0 1 1.289 2.15 5.027 5.027 0 0 0-.142 2.678c.085.342-.022.5-.371.527a10.354 10.354 0 0 1-1.4.121 5.4 5.4 0 0 1-2.079-.328 2.007 2.007 0 0 1-1.339-1.965c-.032-2.358 1.628-3.668 4.042-3.183z"></path><path class="b" d="M36.162 35.393a.478.478 0 0 1 .049.182.489.489 0 0 1-.027.186.47.47 0 0 1-.1.162.481.481 0 0 1-.153.111q-2.286 1.421-4.572 2.827a1.694 1.694 0 0 1-.327.135c-.264-.014-.428-.107-.478-.32a.5.5 0 0 1 .228-.6c.406-.256.819-.5 1.225-.761 1-.627 1.987-1.254 2.984-1.881a4.144 4.144 0 0 1 .5-.292.461.461 0 0 1 .563.077.455.455 0 0 1 .108.174zm-2.948 11.074a3.276 3.276 0 0 1 .192 3.931 2.155 2.155 0 0 1-1.674 1.089c-.726.071-1.445.221-2.243.228-5.27-.157-9.344-2.614-12.413-6.865A19.242 19.242 0 0 1 13.964 38a2.835 2.835 0 0 1 .62-2.692 17.286 17.286 0 0 1 2.841-2.7 1.212 1.212 0 0 1 1.531-.029 10.774 10.774 0 0 1 3.874 4.2c1.005 1.937.656 3.013-1.282 4-.462.235-.448.363-.17.762a23.39 23.39 0 0 0 3.931 4.294 1.786 1.786 0 0 0 .69.4c.641.185.812.057.841-.606a3.078 3.078 0 0 1 1.7-2.186.734.734 0 0 1 .562.028 10.3 10.3 0 0 1 4.112 2.996zm-.769 3.617a2.3 2.3 0 0 0 .007-3.033 8.058 8.058 0 0 0-2.877-2.272c-.848-.449-1.3-.285-1.7.6a2.018 2.018 0 0 0-.079.741 1.042 1.042 0 0 1-1.068 1.118 2.539 2.539 0 0 1-2.072-.684c-.5-.484-1.026-.94-1.531-1.41a23.9 23.9 0 0 1-3.155-3.981c-.342-.484-.214-.762.356-.94a4.188 4.188 0 0 0 1.21-.534c.948-.641 1.09-.99.634-2.023a9.639 9.639 0 0 0-3.653-4.223.519.519 0 0 0-.677.05 20.653 20.653 0 0 0-2.207 2.037 2.532 2.532 0 0 0-.627 2.8 20.159 20.159 0 0 0 3.333 6.623 14.551 14.551 0 0 0 11.494 5.832c.477-.071 1.239-.185 2-.292a.942.942 0 0 0 .343-.142.958.958 0 0 0 .269-.267zm.284-19.335a.5.5 0 0 1 .2.347.511.511 0 0 1-.02.2.5.5 0 0 1-.1.178c-1.289 1.8-2.358 3.739-3.6 5.569-.149.221-.292.463-.612.463-.413-.007-.57-.392-.313-.812.4-.641.819-1.261 1.217-1.894.734-1.147 1.46-2.308 2.194-3.461a3.941 3.941 0 0 1 .327-.47.462.462 0 0 1 .138-.147.471.471 0 0 1 .187-.076.486.486 0 0 1 .2.009.477.477 0 0 1 .182.094z"></path><path d="M32.452 47.051a2.3 2.3 0 0 1-.007 3.033.958.958 0 0 1-.263.264.942.942 0 0 1-.343.142c-.762.107-1.524.221-2 .292a14.551 14.551 0 0 1-11.495-5.832 20.159 20.159 0 0 1-3.333-6.623 2.532 2.532 0 0 1 .627-2.8 20.653 20.653 0 0 1 2.207-2.037.519.519 0 0 1 .677-.05 9.639 9.639 0 0 1 3.653 4.223c.456 1.033.314 1.382-.634 2.023a4.188 4.188 0 0 1-1.21.534c-.57.178-.7.456-.356.94a23.9 23.9 0 0 0 3.155 3.981c.505.47 1.032.926 1.531 1.41a2.539 2.539 0 0 0 2.072.684 1.041 1.041 0 0 0 1.067-1.117 2.018 2.018 0 0 1 .079-.741c.391-.883.847-1.047 1.7-.6a8.058 8.058 0 0 1 2.873 2.274z" style="fill:#ffffff0d9"></path></g></svg>